<?xml version="1.0" encoding="UTF-8"?>
<svg version="1.1" xmlns="http://www.w3.org/2000/svg" width="1204" height="518">
<path d="M0 0 C2.875 0.625 2.875 0.625 6 2 C7.4375 5 7.4375 5 8 8 C7.67 8.66 7.34 9.32 7 10 C6.01 10 5.02 10 4 10 C3.62875 10.92039062 3.62875 10.92039062 3.25 11.859375 C1.75831599 14.41388387 0.64083891 14.98616995 -2 16.25 C-9.60050702 20.22187786 -16.12595854 25.78042669 -22 32 C-23.29579647 33.36984198 -24.61992749 34.7151049 -26 36 C-26.66 36 -27.32 36 -28 36 C-28.0825 36.53625 -28.165 37.0725 -28.25 37.625 C-29.05867348 40.18579936 -30.35669318 41.97289681 -31.8828125 44.15625 C-34.44538846 48.38539635 -36.37711049 53.29915107 -37.48828125 58.1171875 C-38 60 -38 60 -40 63 C-40.24107326 65.28648848 -40.24107326 65.28648848 -40.125 67.6875 C-40.10695313 68.49574219 -40.08890625 69.30398437 -40.0703125 70.13671875 C-40.04710937 70.75160156 -40.02390625 71.36648437 -40 72 C-40.99 72.495 -40.99 72.495 -42 73 C-43.03449953 75.92892679 -43.08150854 78.60545832 -43 81.6875 C-42.96236969 83.12450738 -42.95337141 84.56325645 -43 86 C-43.33 86.33 -43.66 86.66 -44 87 C-43.67019516 88.3342105 -43.33604047 89.66734637 -43 91 C-42.90978696 92.72731441 -42.86989022 94.45783895 -42.875 96.1875 C-42.87113281 97.50814453 -42.87113281 97.50814453 -42.8671875 98.85546875 C-43 101 -43 101 -44 102 C-44.07148199 103.35243917 -44.08399454 104.70834367 -44.0625 106.0625 C-44.041875 107.361875 -44.02125 108.66125 -44 110 C-44.33 110 -44.66 110 -45 110 C-45.11438897 150.80835825 -45.20252018 191.61669564 -45.25532665 232.42518212 C-45.26158035 237.24056764 -45.26805194 242.05595284 -45.2746582 246.87133789 C-45.27596976 247.83001368 -45.27728131 248.78868947 -45.2786326 249.77641604 C-45.30040232 265.30891707 -45.33983246 280.84132577 -45.38576398 296.37377199 C-45.43248507 312.30583521 -45.46028619 328.23785 -45.47044247 344.16997892 C-45.47731067 354.00478441 -45.49902024 363.83932899 -45.53958233 373.67405418 C-45.56596706 380.41373062 -45.57401071 387.15327173 -45.56750689 393.8929961 C-45.5642973 397.78433164 -45.5692933 401.67521057 -45.59602737 405.56646538 C-45.62477881 409.78205305 -45.61496731 413.99666303 -45.60127258 418.21232605 C-45.61583679 419.44675625 -45.630401 420.68118644 -45.64540654 421.95302361 C-45.68019441 428.54909793 -45.68019441 428.54909793 -42.60011578 434.19107533 C-41.74207757 434.78802047 -40.88403936 435.38496561 -40 436 C-39.27296875 436.57105469 -38.5459375 437.14210938 -37.796875 437.73046875 C-36.78367187 438.45169922 -36.78367187 438.45169922 -35.75 439.1875 C-32.10948905 441.7810219 -32.10948905 441.7810219 -31 444 C-30.01 444.33 -29.02 444.66 -28 445 C-26 447 -26 447 -25 449 C-24.44957031 449.10183594 -23.89914062 449.20367187 -23.33203125 449.30859375 C-19.2676817 450.51360191 -16.20405289 453.74383657 -13.04101562 456.49414062 C-9.92867484 459.04060127 -8.37494348 459.95347417 -4.25390625 460.46484375 C-0.043252 459.86332171 1.21521082 458.0942102 4 455 C4.99 455 5.98 455 7 455 C7.2475 454.360625 7.495 453.72125 7.75 453.0625 C9 451 9 451 11.078125 450.37109375 C11.71234375 450.24863281 12.3465625 450.12617188 13 450 C14.03572896 451.74122549 15.0531252 453.49336595 16.0625 455.25 C16.63097656 456.22453125 17.19945312 457.1990625 17.78515625 458.203125 C19.12806708 461.29484254 19.16492984 461.9617621 18 465 C16.64892578 466.46386719 16.64892578 466.46386719 14.9453125 467.796875 C14.33042969 468.28027344 13.71554687 468.76367188 13.08203125 469.26171875 C12.43621094 469.75285156 11.79039062 470.24398438 11.125 470.75 C10.48691406 471.25660156 9.84882812 471.76320313 9.19140625 472.28515625 C4.39515246 476 4.39515246 476 1 476 C0.74436279 476.60118652 0.48872559 477.20237305 0.2253418 477.82177734 C-1.13567642 480.2411845 -2.34940995 481.26552241 -4.60546875 482.8515625 C-5.31880371 483.36364258 -6.03213867 483.87572266 -6.76708984 484.40332031 C-7.5039502 484.93022461 -8.24081055 485.45712891 -9 486 C-10.39620217 487.06472971 -11.7881916 488.13500775 -13.17578125 489.2109375 C-15.24414062 490.79296875 -15.24414062 490.79296875 -17.3125 492.375 C-18.3653418 493.19291016 -18.3653418 493.19291016 -19.43945312 494.02734375 C-20.45362305 494.79884766 -20.45362305 494.79884766 -21.48828125 495.5859375 C-22.09196533 496.0504834 -22.69564941 496.5150293 -23.31762695 496.99365234 C-25 498 -25 498 -28 498 C-28.24878906 498.59296875 -28.49757813 499.1859375 -28.75390625 499.796875 C-30.17974226 502.31778882 -31.61616713 503.53817911 -33.9375 505.25 C-34.62714844 505.77078125 -35.31679688 506.2915625 -36.02734375 506.828125 C-38 508 -38 508 -41 508 C-41.33 508.99 -41.66 509.98 -42 511 C-43.32303717 511.3721042 -44.65737935 511.70630173 -46 512 C-46.33 512.66 -46.66 513.32 -47 514 C-48.3125 515.6875 -48.3125 515.6875 -50 517 C-54.10343857 516.66952173 -56.67771785 514.1024158 -59.75 511.5625 C-61.22726562 510.35787109 -61.22726562 510.35787109 -62.734375 509.12890625 C-63.48203125 508.42636719 -64.2296875 507.72382813 -65 507 C-65 506.34 -65 505.68 -65 505 C-65.84498047 504.61328125 -65.84498047 504.61328125 -66.70703125 504.21875 C-69.2580504 502.86284204 -71.41046899 501.27646056 -73.6875 499.5 C-74.47511719 498.8915625 -75.26273438 498.283125 -76.07421875 497.65625 C-78 496 -78 496 -79 494 C-79.825 493.5875 -80.65 493.175 -81.5 492.75 C-85.89502261 490.5524887 -90.15088741 488.07073649 -94 485 C-94 484.34 -94 483.68 -94 483 C-94.69222656 482.73832031 -95.38445313 482.47664063 -96.09765625 482.20703125 C-99.31543711 480.86881552 -102.34742561 479.29862549 -105.4375 477.6875 C-111.52277586 474.56615558 -117.63900894 472.19906045 -124.13671875 470.04296875 C-127 469 -127 469 -130 467 C-130.66 467 -131.32 467 -132 467 C-132 466.34 -132 465.68 -132 465 C-132.53625 465.226875 -133.0725 465.45375 -133.625 465.6875 C-137.07015071 466.1408093 -139.01762487 464.64982454 -142 463 C-142.99 462.67 -143.98 462.34 -145 462 C-145.375 459.3125 -145.375 459.3125 -145 456 C-143.19095883 453.7774637 -141.43971575 452.62647716 -139 451 C-138.01 451 -137.02 451 -136 451 C-136 450.34 -136 449.68 -136 449 C-135.34 449 -134.68 449 -134 449 C-133.773125 448.29875 -133.54625 447.5975 -133.3125 446.875 C-131.98877489 443.97541166 -130.3146277 441.98773471 -128.234375 439.6015625 C-126.21095164 436.97623473 -125.15656412 434.08417098 -124 431 C-123.608125 430.01 -123.21625 429.02 -122.8125 428 C-121.88241038 424.56582294 -121.85831752 421.54206192 -122 418 C-121.34 417.67 -120.68 417.34 -120 417 C-120.08378906 416.34515625 -120.16757812 415.6903125 -120.25390625 415.015625 C-121.05220686 407.86123477 -120.81047114 401.14461481 -120 394 C-119.67 394 -119.34 394 -119 394 C-117.7457699 388.17867902 -117.85784263 382.4332302 -117.86628723 376.51019287 C-117.8628889 374.76502644 -117.8628889 374.76502644 -117.85942191 372.98460412 C-117.85419311 369.76396375 -117.85343591 366.54335855 -117.85461628 363.32271528 C-117.85482061 359.84626333 -117.84929868 356.36981966 -117.84455872 352.89337158 C-117.83626038 346.08757067 -117.8335043 339.28177841 -117.83294634 332.47597286 C-117.83247107 326.9469552 -117.83041579 321.4179404 -117.82724571 315.88892365 C-117.81844365 300.21864435 -117.81382598 284.5483719 -117.81457619 268.87809011 C-117.81463612 267.6115068 -117.81463612 267.6115068 -117.81469727 266.31933594 C-117.81475859 265.05121049 -117.81475859 265.05121049 -117.81482115 263.75746635 C-117.81522814 250.03721802 -117.80564394 236.31699707 -117.7915589 222.59675667 C-117.77721578 208.51434057 -117.77028748 194.43193784 -117.77115268 180.34951425 C-117.77148522 172.44090127 -117.76871273 164.53231704 -117.75797462 156.62371063 C-117.74889705 149.8950286 -117.74667189 143.16638835 -117.75348405 136.43770286 C-117.75676238 133.00253212 -117.75675887 129.56744169 -117.7481308 126.13227844 C-117.74048374 122.4154033 -117.74500688 118.69874264 -117.75276184 114.98187256 C-117.74761828 113.88676164 -117.74247471 112.79165073 -117.73717529 111.66335464 C-117.74177408 110.67378839 -117.74637288 109.68422214 -117.75111103 108.66466904 C-117.75089366 107.80595632 -117.75067629 106.94724361 -117.75045234 106.0625093 C-117.8117816 103.77685027 -117.8117816 103.77685027 -120 102 C-120.4140625 99.2421875 -120.4140625 99.2421875 -120.625 95.875 C-120.69847656 94.71355469 -120.77195312 93.55210938 -120.84765625 92.35546875 C-121.02004606 88.55847279 -121.07450172 84.79958753 -121 81 C-121.33 81 -121.66 81 -122 81 C-121.67 78.69 -121.34 76.38 -121 74 C-121.99 73.505 -121.99 73.505 -123 73 C-122.8040625 72.43023437 -122.608125 71.86046875 -122.40625 71.2734375 C-121.61794849 66.86198097 -124.20598366 62.95203598 -126 59 C-126.47566406 57.8965625 -126.95132813 56.793125 -127.44140625 55.65625 C-132.37740873 44.90409038 -139.29962242 37.60386568 -147.6875 29.375 C-150 27 -150 27 -150 25 C-150.804375 24.7525 -151.60875 24.505 -152.4375 24.25 C-155 23 -155 23 -155.875 21 C-156 19 -156 19 -155 17 C-154.34 17 -153.68 17 -153 17 C-152.34 15.68 -151.68 14.36 -151 13 C-150.443125 13.25394531 -149.88625 13.50789062 -149.3125 13.76953125 C-145.51494953 15.48227783 -141.72864833 17.13844606 -137.8125 18.5625 C-134.40802938 19.80421073 -131.21146967 21.31397843 -128 23 C-128 23.66 -128 24.32 -128 25 C-127.030625 25.185625 -126.06125 25.37125 -125.0625 25.5625 C-119.82173679 27.05231374 -116.13491444 30.59812547 -112 34 C-110.58872261 35.04895663 -109.17232312 36.0910702 -107.75 37.125 C-104.54538763 39.51100842 -101.79027993 42.1343071 -99 45 C-95.69595459 48.29075073 -95.69595459 48.29075073 -91.2890625 49.0703125 C-86.45674862 47.49780181 -84.06499303 44.28358314 -80.8125 40.5 C-79.59483007 39.11019872 -78.37237296 37.72457308 -77.14453125 36.34375 C-76.61190674 35.72693359 -76.07928223 35.11011719 -75.53051758 34.47460938 C-74 33 -74 33 -71 32 C-70.278125 31.278125 -69.55625 30.55625 -68.8125 29.8125 C-64.77993464 25.77993464 -60.46612026 21.82204009 -55 20 C-54.38125 19.36964844 -53.7625 18.73929688 -53.125 18.08984375 C-50.83454642 15.8372837 -48.93729025 14.82570964 -46 13.5625 C-45.03449219 13.14613281 -44.06898438 12.72976563 -43.07421875 12.30078125 C-41.55248047 11.65689453 -41.55248047 11.65689453 -40 11 C-38.97519531 10.53980469 -37.95039062 10.07960938 -36.89453125 9.60546875 C-31.17444529 7.08979089 -26.25230929 5.36071015 -20 5 C-20 4.34 -20 3.68 -20 3 C-16.30458414 2.04975021 -13.69541586 2.04975021 -10 3 C-10 2.67 -10 2.34 -10 2 C-7.03 2 -4.06 2 -1 2 C-0.67 1.34 -0.34 0.68 0 0 Z " fill="#000000" transform="translate(907,0)"/>
<path d="M0 0 C3.3125 0.8125 3.3125 0.8125 5.8125 2.25 C7.67675922 5.43477617 7.32672751 7.5190505 6.7421875 11.0859375 C6.22873858 14.34400426 5.98648808 17.58566583 5.75 20.875 C5.62431641 22.56302734 5.62431641 22.56302734 5.49609375 24.28515625 C5.43550781 25.11917969 5.37492187 25.95320313 5.3125 26.8125 C5.9725 26.8125 6.6325 26.8125 7.3125 26.8125 C7.2403125 27.45574219 7.168125 28.09898438 7.09375 28.76171875 C6.42966524 35.22732174 6.25003355 41.56424462 6.375 48.0625 C6.3125 50.8125 6.3125 50.8125 5.3125 53.8125 C5.11683884 55.28811123 4.9524465 56.76806654 4.8125 58.25 C4.60279168 60.46317178 4.39680592 62.51766345 3.78515625 64.65673828 C3.25396983 67.07945319 3.30701216 69.08551507 3.46875 71.55859375 C3.52232666 72.47302246 3.57590332 73.38745117 3.63110352 74.32958984 C3.72089478 75.77519287 3.72089478 75.77519287 3.8125 77.25 C4.27123767 85.58111361 4.24618312 93.5131906 3.3125 101.8125 C4.35688232 101.70639404 4.35688232 101.70639404 5.42236328 101.59814453 C15.0926262 100.72737707 24.71045789 100.65982289 34.41357422 100.68212891 C37.1755119 100.68747679 39.93728605 100.68215985 42.69921875 100.67578125 C65.92072544 100.66382453 65.92072544 100.66382453 73.3125 101.8125 C74.93841155 105.0643231 74.47556852 108.64160038 74.48046875 112.21484375 C74.48379715 113.04834854 74.48712555 113.88185333 74.49055481 114.74061584 C74.49562161 116.50505012 74.49796321 118.269494 74.49780273 120.03393555 C74.49998841 122.73567469 74.51814426 125.43700506 74.53710938 128.13867188 C74.54004348 129.8515611 74.54202816 131.56445227 74.54296875 133.27734375 C74.55015427 134.0867894 74.55733978 134.89623505 74.56474304 135.73020935 C74.54889392 139.61495573 74.51736601 141.50520098 72.3125 144.8125 C69.54187012 145.17999268 69.54187012 145.17999268 65.96679688 145.16894531 C65.31622818 145.17098969 64.66565948 145.17303406 63.99537659 145.17514038 C61.84038375 145.17815367 59.68615216 145.15965585 57.53125 145.140625 C56.03674509 145.13756813 54.54223734 145.13569146 53.04772949 145.13494873 C49.91370766 145.13034222 46.7799423 145.11590358 43.64599609 145.09375 C39.62405471 145.06546731 35.60231549 145.05453889 31.58028412 145.0500679 C28.49369271 145.0459153 25.40714237 145.03609915 22.3205719 145.02419281 C20.83737009 145.01848612 19.35416433 145.01372873 17.87095642 145.00992584 C15.79996776 145.00306768 13.7291404 144.98943746 11.65820312 144.97363281 C10.47842896 144.96680481 9.29865479 144.95997681 8.08312988 144.95294189 C5.3125 144.8125 5.3125 144.8125 3.3125 143.8125 C3.19846471 174.42932913 3.10996603 205.04610975 3.05717335 235.66310049 C3.05091973 239.27678414 3.04444813 242.89046737 3.0378418 246.50415039 C3.03653024 247.223577 3.03521869 247.94300361 3.0338674 248.68423102 C3.01210412 260.33683256 2.97267757 271.98931091 2.92673602 283.64183935 C2.87999692 295.59625699 2.85221002 307.55061006 2.84205753 319.50511533 C2.83580937 326.22073745 2.82076773 332.93610254 2.78384972 339.65163231 C2.74997708 345.96926384 2.73942959 352.28650001 2.74696159 358.60421371 C2.74558316 360.92583042 2.73559922 363.24746001 2.71647263 365.56899834 C2.69167199 368.73380014 2.69754828 371.89710041 2.71122742 375.06193542 C2.69666321 375.98508976 2.682099 376.90824409 2.66709346 377.85937279 C2.71975129 382.35252129 2.80630685 384.18777596 5.72117329 387.78519154 C6.5763111 388.45420333 7.43144892 389.12321512 8.3125 389.8125 C9.3334375 390.8953125 9.3334375 390.8953125 10.375 392 C12.27261212 393.77518553 13.93748984 394.7946385 16.3125 395.8125 C16.3125 396.4725 16.3125 397.1325 16.3125 397.8125 C16.86550781 397.90144531 17.41851562 397.99039062 17.98828125 398.08203125 C20.99574631 399.02723455 22.98911853 400.59781707 25.5 402.5 C26.46808594 403.21414063 27.43617188 403.92828125 28.43359375 404.6640625 C30.22597956 406.00166385 32.01122243 407.34895987 33.78515625 408.7109375 C37.44371738 411.38426004 39.45140742 412.76944537 44.0625 413 C47.9998197 411.56136396 49.4806173 409.90781365 52.3125 406.8125 C53.97871019 405.39132072 55.66832719 403.99732463 57.375 402.625 C58.62990234 401.61373047 58.62990234 401.61373047 59.91015625 400.58203125 C61.99805371 399.04411654 63.95615057 397.87367353 66.3125 396.8125 C66.9725 398.4625 67.6325 400.1125 68.3125 401.8125 C68.9725 401.8125 69.6325 401.8125 70.3125 401.8125 C72 403.5 72 403.5 73.3125 405.8125 C73.234375 408.1875 73.234375 408.1875 72.3125 410.8125 C69.87890625 413.05078125 69.87890625 413.05078125 66.875 415.125 C65.39193359 416.17107422 65.39193359 416.17107422 63.87890625 417.23828125 C61.3125 418.8125 61.3125 418.8125 59.3125 418.8125 C59.3125 419.4725 59.3125 420.1325 59.3125 420.8125 C58.6525 420.8125 57.9925 420.8125 57.3125 420.8125 C56.9825 421.4725 56.6525 422.1325 56.3125 422.8125 C44.96028325 433.8125 44.96028325 433.8125 40.3125 433.8125 C39.9825 434.8025 39.6525 435.7925 39.3125 436.8125 C37.32649663 438.1665932 35.32432457 439.49707624 33.3125 440.8125 C32.55839844 441.57175781 31.80429688 442.33101563 31.02734375 443.11328125 C28.06121943 446.06233435 24.94197448 448.58937398 21.625 451.125 C20.75391602 451.8065918 20.75391602 451.8065918 19.86523438 452.50195312 C15.5590343 455.8125 15.5590343 455.8125 13.3125 455.8125 C12.9825 456.4725 12.6525 457.1325 12.3125 457.8125 C6.83097786 463.24507997 0.84685131 467.7343233 -5.6875 471.8125 C-6.368125 471.11125 -7.04875 470.41 -7.75 469.6875 C-10.44792739 466.96631461 -13.35343452 464.55154225 -16.33203125 462.14453125 C-16.77933594 461.70496094 -17.22664063 461.26539063 -17.6875 460.8125 C-17.6875 460.1525 -17.6875 459.4925 -17.6875 458.8125 C-18.326875 458.544375 -18.96625 458.27625 -19.625 458 C-21.6875 456.8125 -21.6875 456.8125 -22.6875 453.8125 C-24.33816253 453.10713808 -26.00839802 452.44719581 -27.6875 451.8125 C-29.49351357 450.6138901 -31.26323496 449.35941861 -33 448.0625 C-33.96421875 447.34964844 -34.9284375 446.63679688 -35.921875 445.90234375 C-37.56793821 444.65849655 -39.2064311 443.40436258 -40.828125 442.12890625 C-44.93924376 438.91187226 -49.05224689 436.48681603 -53.76171875 434.23828125 C-57.41298699 432.45895828 -60.98509731 430.54753504 -64.5625 428.625 C-66.93537987 427.35006417 -69.31030184 426.07940678 -71.6875 424.8125 C-72.43257812 424.38324219 -73.17765625 423.95398438 -73.9453125 423.51171875 C-75.87980128 422.51725225 -75.87980128 422.51725225 -78.6875 423.8125 C-79.0175 423.1525 -79.3475 422.4925 -79.6875 421.8125 C-82.78834891 420.7464663 -85.89376522 419.80629336 -89.05273438 418.93164062 C-93.70987215 417.51583432 -96.11878869 415.96602035 -98.6875 411.8125 C-98.6875 409.8125 -98.6875 409.8125 -97.1484375 408.26171875 C-96.46007812 407.68035156 -95.77171875 407.09898437 -95.0625 406.5 C-94.33546875 405.88382812 -93.6084375 405.26765625 -92.859375 404.6328125 C-91.78429687 403.73175781 -91.78429687 403.73175781 -90.6875 402.8125 C-90.09453125 402.29429687 -89.5015625 401.77609375 -88.890625 401.2421875 C-84.93178571 397.8125 -84.93178571 397.8125 -82.6875 397.8125 C-82.605 397.296875 -82.5225 396.78125 -82.4375 396.25 C-81.6875 393.8125 -81.6875 393.8125 -79.75 390.625 C-77.33355124 386.5450539 -76.48504667 382.44666594 -75.6875 377.8125 C-75.48125 376.636875 -75.275 375.46125 -75.0625 374.25 C-74.93875 373.445625 -74.815 372.64125 -74.6875 371.8125 C-73.6975 371.8125 -72.7075 371.8125 -71.6875 371.8125 C-72.0175 371.1525 -72.3475 370.4925 -72.6875 369.8125 C-72.78357359 366.86456087 -72.81758532 363.94030526 -72.80775452 360.99215698 C-72.80860894 360.0675653 -72.80946337 359.14297362 -72.81034368 358.190364 C-72.81199879 355.07334182 -72.8064766 351.95637274 -72.80102539 348.83935547 C-72.8007435 346.61248781 -72.80090129 344.38562005 -72.8014679 342.15875244 C-72.8017558 336.09707264 -72.79586027 330.03541247 -72.78889394 323.97373724 C-72.78265915 317.64493756 -72.7820565 311.31613748 -72.78086853 304.98733521 C-72.77810967 294.35955423 -72.77185578 283.73178103 -72.76293945 273.10400391 C-72.75376408 262.15608761 -72.74668386 251.20817327 -72.74243164 240.26025391 C-72.74216892 239.58571835 -72.74190619 238.9111828 -72.74163551 238.21620677 C-72.7403305 234.83234795 -72.73906678 231.44848912 -72.73782361 228.06463027 C-72.72745251 199.98058181 -72.70976131 171.89654136 -72.6875 143.8125 C-73.3475 144.1425 -74.0075 144.4725 -74.6875 144.8125 C-76.79278933 144.89793895 -78.90081157 144.91964725 -81.0078125 144.91015625 C-82.26464844 144.90693359 -83.52148438 144.90371094 -84.81640625 144.90039062 C-86.13511719 144.89201172 -87.45382813 144.88363281 -88.8125 144.875 C-90.15234211 144.86998489 -91.492186 144.86542201 -92.83203125 144.86132812 C-96.11723206 144.84951086 -99.40234397 144.83303617 -102.6875 144.8125 C-106.08841887 138.66661461 -107.57471579 134.76330181 -105.6875 127.8125 C-104.25 124.9375 -104.25 124.9375 -102.6875 122.8125 C-102.0275 121.8225 -101.3675 120.8325 -100.6875 119.8125 C-100.0275 119.8125 -99.3675 119.8125 -98.6875 119.8125 C-98.6875 119.1525 -98.6875 118.4925 -98.6875 117.8125 C-98.0275 117.8125 -97.3675 117.8125 -96.6875 117.8125 C-96.48125 117.131875 -96.275 116.45125 -96.0625 115.75 C-94.25854973 111.89610625 -91.7864655 108.73462236 -88.6875 105.8125 C-88.0275 105.8125 -87.3675 105.8125 -86.6875 105.8125 C-86.3575 104.4925 -86.0275 103.1725 -85.6875 101.8125 C-85.0275 101.8125 -84.3675 101.8125 -83.6875 101.8125 C-83.501875 101.1525 -83.31625 100.4925 -83.125 99.8125 C-81.38367525 96.17843095 -79.05465439 93.63181643 -76.34375 90.6796875 C-74.51948095 88.70906809 -74.51948095 88.70906809 -72.6875 85.8125 C-72.0275 85.8125 -71.3675 85.8125 -70.6875 85.8125 C-70.31044922 84.72388672 -70.31044922 84.72388672 -69.92578125 83.61328125 C-68.5831954 80.57658076 -67.02122098 78.52847926 -64.875 76 C-64.07449219 75.04480469 -63.27398437 74.08960937 -62.44921875 73.10546875 C-62.00884277 72.58259277 -61.5684668 72.0597168 -61.11474609 71.52099609 C-58.43608383 68.31448249 -55.81680361 65.05949465 -53.1875 61.8125 C-52.07708414 60.44510033 -50.96641037 59.07791005 -49.85546875 57.7109375 C-49.05375244 56.72432129 -49.05375244 56.72432129 -48.23583984 55.71777344 C-47.7248877 55.0890332 -47.21393555 54.46029297 -46.6875 53.8125 C-46.21650879 53.23274414 -45.74551758 52.65298828 -45.26025391 52.05566406 C-44.00806121 50.5152792 -42.7540927 48.97633839 -41.5 47.4375 C-40.80519531 46.58414063 -40.11039062 45.73078125 -39.39453125 44.8515625 C-37.6875 42.8125 -37.6875 42.8125 -35.6875 40.8125 C-34.84109362 39.6973024 -34.00981747 38.57057697 -33.1875 37.4375 C-30.05797364 33.21609958 -26.69947924 29.20382578 -23.30859375 25.19287109 C-20.96083962 22.39865 -18.7468663 19.57516346 -16.6875 16.5625 C-16.0275 15.655 -15.3675 14.7475 -14.6875 13.8125 C-14.0275 13.8125 -13.3675 13.8125 -12.6875 13.8125 C-12.42324219 13.25046875 -12.15898438 12.6884375 -11.88671875 12.109375 C-9.0583912 6.69225252 -6.19679089 1.3653946 0 0 Z " fill="#000000" transform="translate(106.6875,46.1875)"/>
<path d="M0 0 C8.29252026 0.76634325 16.61644497 0.59226357 24.83203125 -0.73828125 C24.83203125 -0.07828125 24.83203125 0.58171875 24.83203125 1.26171875 C26.81203125 0.93171875 28.79203125 0.60171875 30.83203125 0.26171875 C31.82203125 2.24171875 31.82203125 2.24171875 32.83203125 4.26171875 C33.16203125 4.26171875 33.49203125 4.26171875 33.83203125 4.26171875 C34.16203125 26.37171875 34.49203125 48.48171875 34.83203125 71.26171875 C33.51203125 71.59171875 32.19203125 71.92171875 30.83203125 72.26171875 C30.15140625 72.46796875 29.47078125 72.67421875 28.76953125 72.88671875 C26.83203125 73.26171875 26.83203125 73.26171875 23.83203125 72.26171875 C21.19398536 72.6556921 21.19398536 72.6556921 18.83203125 73.26171875 C18.83203125 72.60171875 18.83203125 71.94171875 18.83203125 71.26171875 C15.86203125 71.75671875 15.86203125 71.75671875 12.83203125 72.26171875 C12.83203125 71.93171875 12.83203125 71.60171875 12.83203125 71.26171875 C3.26203125 71.26171875 -6.30796875 71.26171875 -16.16796875 71.26171875 C-16.16796875 71.59171875 -16.16796875 71.92171875 -16.16796875 72.26171875 C-18.80796875 71.93171875 -21.44796875 71.60171875 -24.16796875 71.26171875 C-24.49796875 71.92171875 -24.82796875 72.58171875 -25.16796875 73.26171875 C-26.24046875 73.07609375 -27.31296875 72.89046875 -28.41796875 72.69921875 C-31.63523854 72.32387061 -33.22727409 72.21147066 -36.16796875 73.26171875 C-37.15796875 73.59171875 -38.14796875 73.92171875 -39.16796875 74.26171875 C-39.49796875 74.92171875 -39.82796875 75.58171875 -40.16796875 76.26171875 C-40.74546875 76.05546875 -41.32296875 75.84921875 -41.91796875 75.63671875 C-44.75326276 75.16416975 -45.68379281 75.90671369 -48.16796875 77.26171875 C-49.83463542 77.59505208 -51.50130208 77.92838542 -53.16796875 78.26171875 C-54.51774724 78.89442742 -55.85149756 79.56234343 -57.16796875 80.26171875 C-57.99296875 80.57109375 -58.81796875 80.88046875 -59.66796875 81.19921875 C-62.1892514 82.15305259 -62.1892514 82.15305259 -64.16796875 83.76171875 C-66.42912204 85.45758372 -68.52050095 86.27661445 -71.16796875 87.26171875 C-75.40015252 88.99993708 -79.29128273 90.83878999 -83.16796875 93.26171875 C-84.3956841 93.95180712 -85.62493046 94.63917681 -86.85546875 95.32421875 C-89.68522595 96.97935976 -91.37356121 98.39509234 -93.54296875 100.76171875 C-95.30450761 102.38775462 -97.02091537 103.22282195 -99.16796875 104.26171875 C-99.82796875 104.92171875 -100.48796875 105.58171875 -101.16796875 106.26171875 C-102.91012002 107.69322136 -104.65814672 109.11665694 -106.4140625 110.53125 C-111.06267377 115.11774174 -111.52148664 119.00684761 -111.58138579 125.31411678 C-111.57653822 126.40069094 -111.57169064 127.4872651 -111.56669617 128.60676575 C-111.57334299 129.76668319 -111.57998982 130.92660063 -111.58683807 132.12166709 C-111.60226211 135.33711128 -111.6043063 138.55224397 -111.6007086 141.76771295 C-111.6000849 145.23667978 -111.61670339 148.70556901 -111.63122559 152.17449951 C-111.65402165 158.18327724 -111.66589842 164.19199696 -111.67035484 170.2008152 C-111.67681385 178.8885367 -111.69974682 187.57615329 -111.72669814 196.26383253 C-111.76997772 210.35906045 -111.79993778 224.45428396 -111.8215332 238.54956055 C-111.84253938 252.24163991 -111.86981132 265.93368316 -111.90551758 279.62573242 C-111.9077164 280.46973855 -111.90991523 281.31374468 -111.91218068 282.18332676 C-111.92325025 286.41746603 -111.93444307 290.65160496 -111.94569719 294.88574374 C-112.03889887 330.01103791 -112.11048916 365.13634865 -112.16796875 400.26171875 C-114.97063283 401.66305079 -117.28682213 401.3889668 -120.421875 401.39111328 C-121.73663818 401.39426544 -123.05140137 401.3974176 -124.40600586 401.40066528 C-125.84749383 401.39887545 -127.28898149 401.39682448 -128.73046875 401.39453125 C-130.2025555 401.39520459 -131.67464215 401.39617486 -133.14672852 401.39743042 C-136.23357195 401.39890598 -139.32038648 401.39675737 -142.40722656 401.39208984 C-146.36861981 401.38639263 -150.3299453 401.38967239 -154.29133606 401.39566231 C-157.33158887 401.39927173 -160.37182556 401.39812757 -163.41207886 401.39553452 C-164.8729554 401.3948663 -166.3338334 401.39568999 -167.79470825 401.39801407 C-169.83449273 401.40054678 -171.87428232 401.39600368 -173.9140625 401.39111328 C-175.07607178 401.39031769 -176.23808105 401.38952209 -177.43530273 401.38870239 C-180.16796875 401.26171875 -180.16796875 401.26171875 -182.16796875 400.26171875 C-182.19083815 349.86472562 -182.20846852 299.467733 -182.21903408 249.0707357 C-182.22028484 243.12617731 -182.22157916 237.18161893 -182.22290039 231.23706055 C-182.2231627 230.05356403 -182.22342501 228.87006751 -182.22369527 227.65070746 C-182.22805121 208.46654858 -182.23593834 189.28239268 -182.24512155 170.09823557 C-182.2544602 150.42583539 -182.26002481 130.75343678 -182.26205724 111.08103448 C-182.26343203 98.9339105 -182.26778023 86.78679495 -182.27588522 74.63967357 C-182.28115529 66.31944329 -182.28277245 57.99921739 -182.28147013 49.67898556 C-182.28082716 44.87265069 -182.28183966 40.06633059 -182.28717422 35.25999832 C-182.29201677 30.86507906 -182.29230171 26.47018462 -182.28886764 22.07526425 C-182.2884428 20.48033533 -182.28973134 18.8854049 -182.29285193 17.29047897 C-182.29683148 15.13206877 -182.29472231 12.97374962 -182.29101658 10.815341 C-182.2913963 9.61352615 -182.29177602 8.41171131 -182.29216725 7.17347783 C-182.16796875 4.26171875 -182.16796875 4.26171875 -181.16796875 1.26171875 C-159.05796875 0.93171875 -136.94796875 0.60171875 -114.16796875 0.26171875 C-114.16796875 0.92171875 -114.16796875 1.58171875 -114.16796875 2.26171875 C-113.17796875 2.75671875 -113.17796875 2.75671875 -112.16796875 3.26171875 C-112.16796875 21.41171875 -112.16796875 39.56171875 -112.16796875 58.26171875 C-106.9066075 55.71537302 -106.9066075 55.71537302 -103.16796875 52.26171875 C-102.50796875 52.26171875 -101.84796875 52.26171875 -101.16796875 52.26171875 C-100.67296875 51.27171875 -100.67296875 51.27171875 -100.16796875 50.26171875 C-98.85743819 49.23201616 -97.5191008 48.23753634 -96.16796875 47.26171875 C-92.60466437 44.46885856 -89.19091179 41.54692803 -85.81640625 38.53125 C-84.16796875 37.26171875 -84.16796875 37.26171875 -81.16796875 36.26171875 C-80.14599883 35.28418231 -79.1481725 34.28113065 -78.16796875 33.26171875 C-76.10956842 31.61499849 -74.07600497 30.20847656 -71.79296875 28.88671875 C-69.00010545 27.24979294 -69.00010545 27.24979294 -66.16796875 24.69921875 C-63.4334707 22.47743908 -61.43553007 21.40978083 -58.16796875 20.26171875 C-57.17796875 19.60171875 -56.18796875 18.94171875 -55.16796875 18.26171875 C-53.8845272 17.61999797 -52.59327928 16.99353033 -51.29296875 16.38671875 C-49.10625521 15.30192804 -49.10625521 15.30192804 -47.10546875 13.69921875 C-45.16796875 12.26171875 -45.16796875 12.26171875 -42.16796875 11.26171875 C-40.7054043 10.60438641 -39.24741637 9.93682072 -37.79296875 9.26171875 C-34.60292784 7.83527769 -31.6853495 6.58148064 -28.16796875 6.26171875 C-27.17796875 6.75671875 -27.17796875 6.75671875 -26.16796875 7.26171875 C-26.16796875 6.60171875 -26.16796875 5.94171875 -26.16796875 5.26171875 C-19.16796875 2.92838542 -19.16796875 2.92838542 -15.16796875 4.26171875 C-15.16796875 3.60171875 -15.16796875 2.94171875 -15.16796875 2.26171875 C-9.52410444 -0.08989138 -6.13123317 -0.78292696 0 0 Z M-6.16796875 1.26171875 C-2.16796875 2.26171875 -2.16796875 2.26171875 -2.16796875 2.26171875 Z M20.83203125 1.26171875 C24.83203125 2.26171875 24.83203125 2.26171875 24.83203125 2.26171875 Z " fill="#000000" transform="translate(1169.16796875,114.73828125)"/>
<path d="M0 0 C3.59571206 1.10519762 5.92730924 2.9703824 8.8828125 5.28515625 C13.24175617 8.67513678 13.24175617 8.67513678 17.7578125 11.84765625 C17.7578125 12.50765625 17.7578125 13.16765625 17.7578125 13.84765625 C18.3353125 14.11578125 18.9128125 14.38390625 19.5078125 14.66015625 C21.81331293 15.87694814 23.77837442 17.15099504 25.7578125 18.84765625 C25.7578125 19.50765625 25.7578125 20.16765625 25.7578125 20.84765625 C26.3353125 21.07453125 26.9128125 21.30140625 27.5078125 21.53515625 C30.35521059 23.19613847 31.87848443 25.16290186 33.7578125 27.84765625 C33.7578125 28.50765625 33.7578125 29.16765625 33.7578125 29.84765625 C34.4178125 29.84765625 35.0778125 29.84765625 35.7578125 29.84765625 C42.06020041 38.95954239 46.39814735 48.5316744 47.3203125 59.59765625 C47.40410156 60.5825 47.48789062 61.56734375 47.57421875 62.58203125 C47.63480469 63.3296875 47.69539063 64.07734375 47.7578125 64.84765625 C48.0878125 64.84765625 48.4178125 64.84765625 48.7578125 64.84765625 C48.74621094 65.97945313 48.73460937 67.11125 48.72265625 68.27734375 C48.71327796 69.75911294 48.7041778 71.2408839 48.6953125 72.72265625 C48.68274414 73.84220703 48.68274414 73.84220703 48.66992188 74.984375 C48.55093166 79.04611203 48.55093166 79.04611203 49.7578125 82.84765625 C50.6240625 82.63109375 50.6240625 82.63109375 51.5078125 82.41015625 C53.59114583 81.88932292 55.67447917 81.36848958 57.7578125 80.84765625 C57.7578125 80.18765625 57.7578125 79.52765625 57.7578125 78.84765625 C58.4178125 78.84765625 59.0778125 78.84765625 59.7578125 78.84765625 C60.0878125 77.85765625 60.4178125 76.86765625 60.7578125 75.84765625 C62.76171875 74.015625 62.76171875 74.015625 65.3203125 72.03515625 C66.21878906 71.33777344 67.11726562 70.64039063 68.04296875 69.921875 C68.93886719 69.23738281 69.83476562 68.55289063 70.7578125 67.84765625 C71.54027344 67.23535156 72.32273437 66.62304688 73.12890625 65.9921875 C78.49415454 61.84765625 78.49415454 61.84765625 80.7578125 61.84765625 C81.0053125 61.2546875 81.2528125 60.66171875 81.5078125 60.05078125 C82.94750113 57.51333005 84.40932743 56.30721523 86.7578125 54.59765625 C87.4590625 54.076875 88.1603125 53.55609375 88.8828125 53.01953125 C90.7578125 51.84765625 90.7578125 51.84765625 92.7578125 51.84765625 C92.7578125 51.18765625 92.7578125 50.52765625 92.7578125 49.84765625 C93.4178125 49.84765625 94.0778125 49.84765625 94.7578125 49.84765625 C95.0878125 48.85765625 95.4178125 47.86765625 95.7578125 46.84765625 C101.12924107 42.84765625 101.12924107 42.84765625 103.7578125 42.84765625 C104.00917969 42.24824219 104.26054687 41.64882812 104.51953125 41.03125 C105.92432059 38.55403472 107.24086598 37.51805337 109.5703125 35.91015625 C113.00982456 33.52179101 115.80693568 30.81655369 118.7578125 27.84765625 C120.44580601 26.40681444 122.15486439 24.99033085 123.8828125 23.59765625 C126.88725622 21.17208771 129.88906524 18.74687295 132.84765625 16.265625 C133.82863281 15.44707031 134.80960938 14.62851563 135.8203125 13.78515625 C136.71878906 13.03105469 137.61726562 12.27695313 138.54296875 11.5 C140.7578125 9.84765625 140.7578125 9.84765625 142.7578125 9.84765625 C143.098125 8.98140625 143.098125 8.98140625 143.4453125 8.09765625 C145.53380061 4.51739091 147.85757799 2.42964689 151.875 1.19921875 C155.15159412 0.61450667 157.62716982 0.25060169 160.63671875 1.83984375 C162.81018315 3.61003886 164.49856269 5.32915663 165.7578125 7.84765625 C166.59505859 8.24017578 166.59505859 8.24017578 167.44921875 8.640625 C170.64795767 10.3130621 173.08643584 12.70761677 175.6953125 15.16015625 C176.20771484 15.63388672 176.72011719 16.10761719 177.24804688 16.59570312 C191.42818007 29.76683066 203.3279193 43.35876921 209.7578125 61.84765625 C209.7578125 63.16765625 209.7578125 64.48765625 209.7578125 65.84765625 C210.4178125 66.17765625 211.0778125 66.50765625 211.7578125 66.84765625 C212.80547312 69.99063812 212.8159337 72.80147456 212.6328125 76.09765625 C212.79540397 79.67466865 213.43718391 82.51464124 214.7578125 85.84765625 C217.25422378 87.36558269 217.25422378 87.36558269 219.7578125 87.84765625 C220.0878125 86.85765625 220.4178125 85.86765625 220.7578125 84.84765625 C221.4178125 84.84765625 222.0778125 84.84765625 222.7578125 84.84765625 C223.0878125 83.85765625 223.4178125 82.86765625 223.7578125 81.84765625 C225.07891939 81.15707765 226.41370713 80.49232901 227.7578125 79.84765625 C229.21930316 78.37721691 229.21930316 78.37721691 230.5078125 76.66015625 C232.64536823 74.04256819 234.8548246 71.79549833 237.4296875 69.609375 C241.82925804 65.81446804 246.04784617 61.85057505 250.2578125 57.84765625 C254.49464911 53.81918866 258.746669 49.81124915 263.1015625 45.91015625 C264.04805664 45.06130859 264.04805664 45.06130859 265.01367188 44.1953125 C266.7578125 42.84765625 266.7578125 42.84765625 269.7578125 41.84765625 C269.7578125 41.18765625 269.7578125 40.52765625 269.7578125 39.84765625 C270.4178125 39.84765625 271.0778125 39.84765625 271.7578125 39.84765625 C272.0878125 38.85765625 272.4178125 37.86765625 272.7578125 36.84765625 C273.4178125 36.84765625 274.0778125 36.84765625 274.7578125 36.84765625 C275.0878125 36.18765625 275.4178125 35.52765625 275.7578125 34.84765625 C276.3971875 34.55890625 277.0365625 34.27015625 277.6953125 33.97265625 C279.88926082 33.03190848 279.88926082 33.03190848 280.68481445 30.9777832 C281.85370916 28.6572812 283.07328146 27.38072668 284.98828125 25.640625 C285.94637695 24.75987305 285.94637695 24.75987305 286.92382812 23.86132812 C287.59091797 23.25869141 288.25800781 22.65605469 288.9453125 22.03515625 C290.25248583 20.84244188 291.55847927 19.64843311 292.86328125 18.453125 C293.50700684 17.8657959 294.15073242 17.2784668 294.81396484 16.67333984 C297.40125605 14.24332683 299.86059851 11.6983846 302.3059082 9.1262207 C303.7578125 7.84765625 303.7578125 7.84765625 305.7578125 7.84765625 C306.0878125 6.85765625 306.4178125 5.86765625 306.7578125 4.84765625 C309.43475136 2.23155691 311.55110517 0.1880096 315.1953125 -0.83984375 C319.16936147 0.22636451 322.02913381 2.81229609 324.7578125 5.84765625 C324.7578125 6.50765625 324.7578125 7.16765625 324.7578125 7.84765625 C325.345625 8.10804688 325.9334375 8.3684375 326.5390625 8.63671875 C328.89467271 9.92235108 330.40418995 11.29320369 332.2578125 13.22265625 C333.15693359 14.15271484 333.15693359 14.15271484 334.07421875 15.1015625 C334.62980469 15.67777344 335.18539063 16.25398438 335.7578125 16.84765625 C336.964375 17.99234375 336.964375 17.99234375 338.1953125 19.16015625 C339.7578125 20.84765625 339.7578125 20.84765625 339.7578125 22.84765625 C340.5003125 23.07453125 341.2428125 23.30140625 342.0078125 23.53515625 C345.35660171 25.13344201 346.48210815 26.92175066 348.7578125 29.84765625 C350.56930528 31.53573833 352.44590198 33.13341952 354.328125 34.7421875 C357.31282557 37.32860809 360.2245514 39.98843139 363.1328125 42.66015625 C363.65681641 43.14049316 364.18082031 43.62083008 364.72070312 44.11572266 C366.7669617 45.99590613 368.79259993 47.88244368 370.7578125 49.84765625 C373.499069 50.60319945 373.499069 50.60319945 376.7578125 49.84765625 C380.3253536 47.32542493 383.39708145 44.30722975 386.37109375 41.1171875 C387.7578125 39.84765625 387.7578125 39.84765625 389.7578125 39.84765625 C390.0878125 38.85765625 390.4178125 37.86765625 390.7578125 36.84765625 C392.39385446 35.47691839 394.06459311 34.14710369 395.7578125 32.84765625 C396.840625 31.73390625 396.840625 31.73390625 397.9453125 30.59765625 C399.7578125 28.84765625 399.7578125 28.84765625 401.7578125 28.84765625 C402.098125 27.98140625 402.098125 27.98140625 402.4453125 27.09765625 C404.13831733 24.19536225 405.93928109 22.6595693 408.7578125 20.84765625 C412.95778036 20.71217342 415.85758829 24.14078032 418.7578125 26.84765625 C419.0878125 27.83765625 419.4178125 28.82765625 419.7578125 29.84765625 C415.99006539 33.72957751 412.12983461 37.64297506 407.7578125 40.84765625 C407.0978125 40.84765625 406.4378125 40.84765625 405.7578125 40.84765625 C405.4278125 41.83765625 405.0978125 42.82765625 404.7578125 43.84765625 C404.0978125 43.84765625 403.4378125 43.84765625 402.7578125 43.84765625 C402.4278125 44.83765625 402.0978125 45.82765625 401.7578125 46.84765625 C401.0978125 46.84765625 400.4378125 46.84765625 399.7578125 46.84765625 C399.6959375 47.38390625 399.6340625 47.92015625 399.5703125 48.47265625 C398.63628417 51.20289289 397.10707369 52.79849815 395.2265625 54.94140625 C387.38132145 65.12352761 383.8277584 77.22229457 382.7578125 89.84765625 C383.0640559 91.18747111 383.39232805 92.52277512 383.7578125 93.84765625 C383.60574404 94.55375345 383.45367558 95.25985065 383.29699898 95.98734474 C382.63807506 99.48284719 382.61955005 102.88339343 382.63082886 106.42514038 C382.62848887 107.55732591 382.62848887 107.55732591 382.62610161 108.71238387 C382.62211859 111.23714957 382.62527084 113.76185496 382.62841797 116.28662109 C382.62706271 118.09863826 382.62528207 119.91065514 382.62310791 121.72267151 C382.61854777 126.6421169 382.6203175 131.56154132 382.623487 136.48098707 C382.62601868 141.6306867 382.62367073 146.78038453 382.62210083 151.93008423 C382.62028118 160.58034589 382.62267977 169.23059901 382.62744141 177.88085938 C382.63288019 187.87658256 382.63112333 197.87228533 382.625615 207.86800802 C382.62107397 216.45243771 382.62043828 225.03686126 382.62305367 233.62129176 C382.62461143 238.74724005 382.62482398 243.87317876 382.62151718 248.99912643 C382.61862423 253.82046143 382.62064037 258.64177018 382.62641144 263.46310234 C382.62773154 265.23075377 382.62735766 266.99840742 382.62514877 268.76605797 C382.62240769 271.18280321 382.62585453 273.59946488 382.63082886 276.01620483 C382.62748277 277.06024225 382.62748277 277.06024225 382.62406909 278.12537134 C382.63694412 281.36064344 382.84050869 284.40910967 383.31262398 287.61446571 C383.7578125 290.84765625 383.7578125 290.84765625 383.0078125 294.41015625 C381.82537623 302.28794597 386.37386121 311.21486739 390.5078125 317.72265625 C392.26455565 319.83165124 393.2381639 320.70610663 395.89453125 321.4296875 C402.21537685 321.71943764 407.22119733 319.36962535 412.5703125 316.16015625 C414.7578125 314.84765625 414.7578125 314.84765625 416.7578125 314.84765625 C416.7578125 314.18765625 416.7578125 313.52765625 416.7578125 312.84765625 C417.4178125 312.84765625 418.0778125 312.84765625 418.7578125 312.84765625 C419.0878125 311.85765625 419.4178125 310.86765625 419.7578125 309.84765625 C421.5078125 308.84765625 421.5078125 308.84765625 423.7578125 308.84765625 C426.5078125 311.16015625 426.5078125 311.16015625 428.7578125 313.84765625 C428.7578125 314.50765625 428.7578125 315.16765625 428.7578125 315.84765625 C429.4178125 316.17765625 430.0778125 316.50765625 430.7578125 316.84765625 C430.4278125 318.49765625 430.0978125 320.14765625 429.7578125 321.84765625 C429.1390625 321.93015625 428.5203125 322.01265625 427.8828125 322.09765625 C427.1815625 322.34515625 426.4803125 322.59265625 425.7578125 322.84765625 C425.51546875 323.41742188 425.273125 323.9871875 425.0234375 324.57421875 C423.18830334 327.87066344 420.35003621 329.7527832 417.3828125 331.97265625 C416.11845955 332.93836258 414.85546496 333.90584962 413.59375 334.875 C412.9553418 335.36468262 412.31693359 335.85436523 411.65917969 336.35888672 C407.69679874 339.46142897 403.90150327 342.76691673 400.0859375 346.046875 C397.7578125 347.84765625 397.7578125 347.84765625 395.7578125 347.84765625 C395.4278125 348.50765625 395.0978125 349.16765625 394.7578125 349.84765625 C392.68204361 351.74972063 390.59105173 353.59058802 388.4453125 355.41015625 C387.57229492 356.17102539 387.57229492 356.17102539 386.68164062 356.94726562 C386.11251953 357.43130859 385.54339844 357.91535156 384.95703125 358.4140625 C384.43971436 358.85693604 383.92239746 359.29980957 383.3894043 359.75610352 C381.54041447 360.99309791 379.92899921 361.42802502 377.7578125 361.84765625 C377.7578125 362.50765625 377.7578125 363.16765625 377.7578125 363.84765625 C377.1390625 363.93015625 376.5203125 364.01265625 375.8828125 364.09765625 C375.1815625 364.34515625 374.4803125 364.59265625 373.7578125 364.84765625 C373.48710938 365.43546875 373.21640625 366.02328125 372.9375 366.62890625 C371.37965708 369.55888896 369.35876425 371.05621156 366.7578125 373.09765625 C365.8709375 373.8040625 364.9840625 374.51046875 364.0703125 375.23828125 C361.7578125 376.84765625 361.7578125 376.84765625 359.7578125 376.84765625 C359.7578125 377.50765625 359.7578125 378.16765625 359.7578125 378.84765625 C358.0078125 380.53515625 358.0078125 380.53515625 355.7578125 381.84765625 C351.93344016 381.7242894 349.48701085 379.34942141 346.7578125 376.84765625 C346.7578125 376.18765625 346.7578125 375.52765625 346.7578125 374.84765625 C346.0978125 374.66203125 345.4378125 374.47640625 344.7578125 374.28515625 C340.48875982 372.23956851 337.01617544 369.27580982 333.7578125 365.84765625 C333.7578125 365.18765625 333.7578125 364.52765625 333.7578125 363.84765625 C332.7678125 363.51765625 331.7778125 363.18765625 330.7578125 362.84765625 C329.22265625 361.2890625 329.22265625 361.2890625 327.6953125 359.41015625 C326.09702576 357.4621172 324.54207306 355.63191681 322.7578125 353.84765625 C322.7578125 352.85765625 322.7578125 351.86765625 322.7578125 350.84765625 C322.0978125 350.51765625 321.4378125 350.18765625 320.7578125 349.84765625 C319.73933764 347.85700084 318.74263272 345.8551744 317.7578125 343.84765625 C317.0771875 342.87828125 316.3965625 341.90890625 315.6953125 340.91015625 C313.60592844 337.60758145 312.76787162 334.5993044 311.7578125 330.84765625 C311.0978125 330.18765625 310.4378125 329.52765625 309.7578125 328.84765625 C309.4140625 326.82421875 309.4140625 326.82421875 309.2578125 324.47265625 C309.08871268 321.94461393 308.94733228 320.20367333 307.75066161 317.95570117 C306.68270201 315.68817956 306.51390949 314.31443504 306.52847672 311.82987499 C306.52819481 311.03549689 306.52791291 310.2411188 306.52762246 309.42266864 C306.53754086 308.55584958 306.54745926 307.68903052 306.55767822 306.79594421 C306.56146504 305.40777653 306.56146504 305.40777653 306.56532836 303.99156505 C306.57610388 300.8831734 306.60115536 297.7750569 306.62597656 294.66674805 C306.63636074 292.44109511 306.64577745 290.21543747 306.65429688 287.98977661 C306.67419424 283.19288069 306.69989927 278.39606254 306.72974396 273.59921837 C306.77581995 266.01489107 306.80246267 258.43057451 306.82513428 250.84614563 C306.85812189 240.2125972 306.89381018 229.57907013 306.93652344 218.94555664 C306.9392283 218.27078527 306.94193317 217.59601389 306.94472 216.9007949 C306.98907501 205.96757501 307.04881486 195.03447826 307.11245826 184.10135617 C307.1772643 172.87230146 307.21860003 161.6433067 307.2410028 150.4140752 C307.25455277 144.11081876 307.2794967 137.80804945 307.33106232 131.50498009 C307.37956217 125.57632036 307.40035214 119.64821608 307.39987183 113.71936417 C307.40471693 111.5436869 307.41988014 109.36800441 307.44612885 107.19248009 C307.48048441 104.22105663 307.4777513 101.25186586 307.46588135 98.28031921 C307.48472264 97.42019232 307.50356392 96.56006543 307.52297616 95.67387408 C307.44900656 90.13489319 306.18631566 87.28996246 302.32732558 83.29944068 C299.97039207 81.11929996 297.58240869 79.03572379 295.0703125 77.03515625 C293.67232422 75.91173828 293.67232422 75.91173828 292.24609375 74.765625 C290.46581901 73.39338811 288.62805951 72.09448759 286.7578125 70.84765625 C286.7578125 70.18765625 286.7578125 69.52765625 286.7578125 68.84765625 C286.1390625 68.60015625 285.5203125 68.35265625 284.8828125 68.09765625 C282.7578125 66.84765625 282.7578125 66.84765625 281.7578125 64.78515625 C281.4278125 64.14578125 281.0978125 63.50640625 280.7578125 62.84765625 C278.77735691 62.18585778 278.77735691 62.18585778 276.7578125 61.84765625 C276.0978125 61.18765625 275.4378125 60.52765625 274.7578125 59.84765625 C272.43506073 59.44718181 270.10041893 59.10794585 267.7578125 58.84765625 C267.4278125 59.83765625 267.0978125 60.82765625 266.7578125 61.84765625 C266.0978125 61.84765625 265.4378125 61.84765625 264.7578125 61.84765625 C264.4278125 62.83765625 264.0978125 63.82765625 263.7578125 64.84765625 C262.2265625 66.35546875 262.2265625 66.35546875 260.2578125 67.97265625 C256.1700487 71.41343586 252.49851973 75.14079067 248.8359375 79.02734375 C246.7578125 80.84765625 246.7578125 80.84765625 244.6171875 81.35546875 C244.00359375 81.51789063 243.39 81.6803125 242.7578125 81.84765625 C241.67391646 83.73918796 241.67391646 83.73918796 240.7578125 85.84765625 C239.20703125 87.375 239.20703125 87.375 237.4453125 88.78515625 C233.70195851 91.87245851 230.32602267 95.21453106 226.96484375 98.71484375 C226.02705078 99.67777344 226.02705078 99.67777344 225.0703125 100.66015625 C224.19826172 101.56701172 224.19826172 101.56701172 223.30859375 102.4921875 C221.7578125 103.84765625 221.7578125 103.84765625 219.7578125 103.84765625 C219.4278125 104.83765625 219.0978125 105.82765625 218.7578125 106.84765625 C218.25087734 107.24500945 217.74394218 107.64236265 217.22164536 108.05175686 C214.90296114 110.89642834 215.32426138 114.06852588 215.33648682 117.58204651 C215.32757345 118.37793039 215.31866008 119.17381427 215.30947661 119.99381584 C215.28339075 122.66988174 215.27888908 125.34554543 215.27441406 128.02172852 C215.26053077 129.93696454 215.24545696 131.85219226 215.22927856 133.76741028 C215.18987819 138.97847845 215.17056511 144.18943062 215.15724659 149.40062451 C215.14845578 152.65729094 215.13614141 155.91392563 215.12273407 159.1705761 C215.08169481 169.36235489 215.0527049 179.55406119 215.0411284 189.7459169 C215.02769751 201.50573789 214.97511364 213.26451078 214.88812661 225.0240131 C214.82321462 234.11547148 214.79301218 243.20663551 214.78900504 252.29832309 C214.78586412 257.7271752 214.76821658 263.15504278 214.7145462 268.58365059 C214.66499623 273.69521438 214.65868484 278.80505784 214.68496323 283.91677666 C214.68726917 285.78802992 214.67431273 287.65937692 214.64458847 289.53039551 C214.30645981 301.62017869 214.30645981 301.62017869 220.13323975 311.85264587 C221.63784187 313.22589559 223.17599481 314.56410838 224.7578125 315.84765625 C226.46565991 317.48062025 228.11349255 319.15029372 229.7578125 320.84765625 C229.7578125 321.50765625 229.7578125 322.16765625 229.7578125 322.84765625 C230.7478125 323.17765625 231.7378125 323.50765625 232.7578125 323.84765625 C232.7578125 324.50765625 232.7578125 325.16765625 232.7578125 325.84765625 C233.4178125 326.17765625 234.0778125 326.50765625 234.7578125 326.84765625 C235.0465625 327.48703125 235.3353125 328.12640625 235.6328125 328.78515625 C236.98691014 331.26766859 238.17959743 331.81637022 240.7578125 332.84765625 C239.4244102 335.91977901 238.12285203 337.63293366 235.44140625 339.625 C234.76851562 340.13160156 234.095625 340.63820313 233.40234375 341.16015625 C232.67402344 341.69640625 231.94570313 342.23265625 231.1953125 342.78515625 C229.64177082 343.95031251 228.0883898 345.11568301 226.53515625 346.28125 C225.73964355 346.87405762 224.94413086 347.46686523 224.12451172 348.07763672 C220.47903052 350.80403849 216.86935507 353.57655677 213.2578125 356.34765625 C211.85304968 357.42211703 210.44810074 358.49633454 209.04296875 359.5703125 C206.09166897 361.82710885 203.1412782 364.08508768 200.19140625 366.34375 C199.43859375 366.91996094 198.68578125 367.49617188 197.91015625 368.08984375 C196.48673861 369.1793733 195.06354279 370.26919274 193.640625 371.359375 C192.3374847 372.35665002 191.03140032 373.35009172 189.72216797 374.33935547 C188.33881775 375.40154012 186.97474336 376.48906644 185.62548828 377.59423828 C184.92794434 378.15353027 184.23040039 378.71282227 183.51171875 379.2890625 C182.88724854 379.80283447 182.26277832 380.31660645 181.61938477 380.84594727 C179.7578125 381.84765625 179.7578125 381.84765625 177.73999023 381.65795898 C175.64016365 380.79956208 174.08670453 379.82249681 172.2890625 378.44140625 C171.64066406 377.94882324 170.99226562 377.45624023 170.32421875 376.94873047 C169.64230469 376.42037598 168.96039063 375.89202148 168.2578125 375.34765625 C166.83094243 374.25623155 165.40385678 373.16508863 163.9765625 372.07421875 C163.26886719 371.53055664 162.56117188 370.98689453 161.83203125 370.42675781 C159.91665409 368.96858226 157.98489309 367.53825778 156.0390625 366.12109375 C155.48154297 365.71310547 154.92402344 365.30511719 154.34960938 364.88476562 C152.84170568 363.78390342 151.33108719 362.68676261 149.8203125 361.58984375 C149.1396875 361.01492188 148.4590625 360.44 147.7578125 359.84765625 C147.7578125 359.18765625 147.7578125 358.52765625 147.7578125 357.84765625 C146.984375 357.47640625 146.984375 357.47640625 146.1953125 357.09765625 C141.9123397 354.90125994 137.76473769 352.51893971 133.7578125 349.84765625 C133.7578125 349.18765625 133.7578125 348.52765625 133.7578125 347.84765625 C132.4378125 347.51765625 131.1178125 347.18765625 129.7578125 346.84765625 C129.7578125 346.18765625 129.7578125 345.52765625 129.7578125 344.84765625 C129.03207031 344.59242188 128.30632812 344.3371875 127.55859375 344.07421875 C124.6025141 342.77964551 122.45216584 341.24310521 119.9453125 339.22265625 C119.15511719 338.59101563 118.36492187 337.959375 117.55078125 337.30859375 C116.95910156 336.82648438 116.36742187 336.344375 115.7578125 335.84765625 C116.78060641 329.65923651 120.15052617 325.99421395 124.7578125 321.84765625 C125.4178125 321.84765625 126.0778125 321.84765625 126.7578125 321.84765625 C127.098125 321.0278125 127.098125 321.0278125 127.4453125 320.19140625 C129.74911818 316.07746753 133.22294754 312.91361801 136.4453125 309.50390625 C140.53799717 304.80284953 141.00709351 301.83429388 140.99832153 295.57110596 C141.00003038 294.83673239 141.00173923 294.10235881 141.00349987 293.3457315 C141.00679479 290.88435983 140.99579113 288.42326062 140.98486328 285.96191406 C140.98429917 284.19779975 140.98461573 282.43368496 140.98574829 280.66957092 C140.9863228 275.87859723 140.97455261 271.08772341 140.96060038 266.29677296 C140.94810936 261.29060686 140.9469238 256.28443855 140.94454956 251.27825928 C140.93833 241.79751593 140.92191273 232.31681863 140.90185058 222.83609557 C140.87950639 212.04298607 140.86850188 201.24987439 140.85845971 190.45674753 C140.83754693 168.25369139 140.80236169 146.05067672 140.7578125 123.84765625 C140.4278125 123.84765625 140.0978125 123.84765625 139.7578125 123.84765625 C139.7578125 115.26765625 139.7578125 106.68765625 139.7578125 97.84765625 C139.0978125 97.51765625 138.4378125 97.18765625 137.7578125 96.84765625 C136.7578125 93.84765625 136.7578125 93.84765625 136.50390625 91.68359375 C135.65696038 84.92946848 133.26612372 81.49192579 128.4375 76.7578125 C126.7578125 74.84765625 126.7578125 74.84765625 126.7578125 71.84765625 C126.17773438 71.75097656 125.59765625 71.65429688 125 71.5546875 C122.29127278 70.70054181 120.94750177 69.47132068 118.8828125 67.53515625 C115.65519011 64.59657467 112.42219617 62.20333147 108.7578125 59.84765625 C108.0978125 59.18765625 107.4378125 58.52765625 106.7578125 57.84765625 C100.9230014 59.83397492 97.28490269 62.82493646 92.87109375 67.10546875 C90.74713404 68.85645957 89.44425947 69.4474181 86.7578125 69.84765625 C86.7578125 70.50765625 86.7578125 71.16765625 86.7578125 71.84765625 C86.0978125 71.84765625 85.4378125 71.84765625 84.7578125 71.84765625 C84.4278125 72.83765625 84.0978125 73.82765625 83.7578125 74.84765625 C81.4296875 77.0390625 81.4296875 77.0390625 78.5078125 79.41015625 C77.55390625 80.19519531 76.6 80.98023438 75.6171875 81.7890625 C72.7578125 83.84765625 72.7578125 83.84765625 70.0234375 84.875 C67.16679331 86.1013869 67.0573606 87.10416581 65.7578125 89.84765625 C64.04292284 91.39133309 62.26395733 92.86518593 60.4453125 94.28515625 C56.63563519 97.273648 52.9892333 100.22775863 49.7578125 103.84765625 C49.7578125 104.83765625 49.7578125 105.82765625 49.7578125 106.84765625 C49.0978125 106.84765625 48.4378125 106.84765625 47.7578125 106.84765625 C48.08271321 107.36048157 48.40761393 107.87330688 48.74236012 108.40167236 C50.10868748 111.69283084 50.00655672 114.41983696 50.00505066 117.98339844 C50.00746507 118.70269909 50.00987949 119.42199974 50.01236707 120.16309738 C50.01800341 122.57366766 50.00934151 124.98397287 50.00073242 127.39453125 C50.00180532 129.12260001 50.00374412 130.85066843 50.00648499 132.57873535 C50.0113352 137.27286772 50.00367536 141.96690512 49.99353194 146.661026 C49.98475369 151.57056573 49.98650885 156.48010246 49.9868927 161.38964844 C49.98595592 169.63478181 49.97727015 177.87987839 49.96362305 186.125 C49.9478974 195.66122234 49.94262494 205.19740439 49.9433586 214.73363876 C49.94396875 223.90238759 49.93886445 233.07112328 49.93056679 242.23986816 C49.92703393 246.1440847 49.92520353 250.04829659 49.92467308 253.95251465 C49.92366923 258.54893979 49.9175691 263.14533104 49.90750694 267.741745 C49.90458382 269.43002617 49.9033562 271.11831124 49.90393448 272.80659485 C49.90442459 275.10840406 49.89877516 277.4101181 49.89152527 279.71191406 C49.88984942 281.00091614 49.88817358 282.28991821 49.88644695 283.61798096 C49.78195692 286.24145298 49.54402062 288.36255994 48.7578125 290.84765625 C49.0878125 290.84765625 49.4178125 290.84765625 49.7578125 290.84765625 C49.7578125 299.84765625 49.7578125 299.84765625 49.5078125 302.66015625 C49.82714893 306.73169574 51.24033306 308.68282496 53.7578125 311.84765625 C54.7478125 312.50765625 55.7378125 313.16765625 56.7578125 313.84765625 C56.7578125 314.50765625 56.7578125 315.16765625 56.7578125 315.84765625 C57.7478125 316.17765625 58.7378125 316.50765625 59.7578125 316.84765625 C59.7578125 317.50765625 59.7578125 318.16765625 59.7578125 318.84765625 C60.7478125 319.17765625 61.7378125 319.50765625 62.7578125 319.84765625 C64.12855036 321.48369821 65.45836506 323.15443686 66.7578125 324.84765625 C67.8715625 325.93046875 67.8715625 325.93046875 69.0078125 327.03515625 C70.7578125 328.84765625 70.7578125 328.84765625 70.7578125 330.84765625 C72.0778125 331.50765625 73.3978125 332.16765625 74.7578125 332.84765625 C73.2245844 336.82866955 70.82886779 338.58741808 67.4453125 341.09765625 C66.26411299 341.98279284 65.08313955 342.86823116 63.90234375 343.75390625 C63.24572754 344.24246094 62.58911133 344.73101562 61.91259766 345.234375 C59.56046298 346.99541125 57.22632622 348.77852988 54.89453125 350.56640625 C45.99841882 357.38692636 37.06614922 364.15910906 28.0703125 370.84765625 C26.85867432 371.75596191 26.85867432 371.75596191 25.62255859 372.68261719 C24.8795752 373.23208008 24.1365918 373.78154297 23.37109375 374.34765625 C22.39329956 375.0746875 22.39329956 375.0746875 21.39575195 375.81640625 C19.7578125 376.84765625 19.7578125 376.84765625 17.7578125 376.84765625 C17.4278125 377.83765625 17.0978125 378.82765625 16.7578125 379.84765625 C13.7578125 381.84765625 13.7578125 381.84765625 11.8359375 381.625 C9.53777154 380.7653477 7.58922741 379.70911333 5.5078125 378.41015625 C4.44820312 377.76240234 4.44820312 377.76240234 3.3671875 377.1015625 C2.83609375 376.68777344 2.305 376.27398437 1.7578125 375.84765625 C1.7578125 375.18765625 1.7578125 374.52765625 1.7578125 373.84765625 C0.7678125 373.51765625 -0.2221875 373.18765625 -1.2421875 372.84765625 C-1.2421875 372.18765625 -1.2421875 371.52765625 -1.2421875 370.84765625 C-1.80808594 370.74839844 -2.37398438 370.64914062 -2.95703125 370.546875 C-5.73875917 369.69571381 -7.47745117 368.41212068 -9.8046875 366.66015625 C-11.22394531 365.59861328 -11.22394531 365.59861328 -12.671875 364.515625 C-13.21811523 364.10489746 -13.76435547 363.69416992 -14.32714844 363.27099609 C-16.5982675 361.58300219 -18.89208805 359.92823903 -21.1875 358.2734375 C-22.9349636 357.00660389 -24.68235912 355.73967636 -26.4296875 354.47265625 C-27.29215088 353.85366455 -28.15461426 353.23467285 -29.04321289 352.59692383 C-29.8449292 352.01193115 -30.64664551 351.42693848 -31.47265625 350.82421875 C-32.19864014 350.29908691 -32.92462402 349.77395508 -33.67260742 349.23291016 C-34.19056885 348.77577637 -34.70853027 348.31864258 -35.2421875 347.84765625 C-35.2421875 347.18765625 -35.2421875 346.52765625 -35.2421875 345.84765625 C-35.94730469 345.60273438 -36.65242188 345.3578125 -37.37890625 345.10546875 C-40.63981787 343.67298097 -43.20352865 341.85243756 -46.0546875 339.72265625 C-47.03050781 338.99820312 -48.00632813 338.27375 -49.01171875 337.52734375 C-49.74777344 336.97304688 -50.48382813 336.41875 -51.2421875 335.84765625 C-50.62941138 332.88590502 -49.98846228 331.46706842 -48.2421875 328.84765625 C-47.5821875 328.84765625 -46.9221875 328.84765625 -46.2421875 328.84765625 C-45.984375 328.265 -45.7265625 327.68234375 -45.4609375 327.08203125 C-44.14384733 324.66736595 -42.69130366 323.03025448 -40.7421875 321.09765625 C-40.13375 320.4840625 -39.5253125 319.87046875 -38.8984375 319.23828125 C-37.2421875 317.84765625 -37.2421875 317.84765625 -35.2421875 317.84765625 C-34.98594919 317.2495901 -34.72971088 316.65152395 -34.46570778 316.03533459 C-33.12967194 313.64647622 -31.75250898 312.58307799 -29.66586304 310.84480286 C-23.69755104 304.08198496 -25.34227251 294.35636349 -25.46337891 285.89331055 C-25.46699288 283.84776617 -25.46750279 281.80221431 -25.46514893 279.75666809 C-25.46740761 274.21533927 -25.51263877 268.67509527 -25.5653615 263.13404822 C-25.61290928 257.33526872 -25.61989437 251.53644642 -25.63095093 245.73750305 C-25.65785298 234.75860928 -25.71958966 223.78020936 -25.79459608 212.80154973 C-25.90313286 196.67151785 -25.9571627 180.54128287 -26.01375389 164.41100025 C-26.02219022 162.03375043 -26.03065669 159.65650071 -26.03915405 157.2792511 C-26.04325582 156.11902477 -26.04735759 154.95879843 -26.05158365 153.76341373 C-26.07715156 146.85475373 -26.11201576 139.94621631 -26.15526891 133.03764474 C-26.18178313 128.74915333 -26.20472018 124.46064651 -26.22724152 120.17213249 C-26.23872989 118.17864108 -26.25201136 116.18515911 -26.26718521 114.19169235 C-26.28774167 111.47815624 -26.30224142 108.76465194 -26.31533813 106.05107117 C-26.32302581 105.2559494 -26.33071349 104.46082764 -26.33863413 103.64161128 C-26.34891161 100.43537959 -26.26404006 97.91321394 -25.2421875 94.84765625 C-25.9021875 94.84765625 -26.5621875 94.84765625 -27.2421875 94.84765625 C-26.96375 93.14609375 -26.96375 93.14609375 -26.6796875 91.41015625 C-26.5353125 90.23453125 -26.3909375 89.05890625 -26.2421875 87.84765625 C-26.5721875 87.51765625 -26.9021875 87.18765625 -27.2421875 86.84765625 C-27.52320696 84.52813056 -27.69001375 82.20880111 -27.86328125 79.87890625 C-27.98832031 79.20859375 -28.11335938 78.53828125 -28.2421875 77.84765625 C-29.2321875 77.35265625 -29.2321875 77.35265625 -30.2421875 76.84765625 C-30.3246875 76.02265625 -30.4071875 75.19765625 -30.4921875 74.34765625 C-31.76623186 68.40211591 -35.18055181 63.22208004 -40.2421875 59.84765625 C-45.24883185 59.26354774 -48.01534872 60.4778968 -52.2421875 63.09765625 C-53.80453125 64.05285156 -53.80453125 64.05285156 -55.3984375 65.02734375 C-57.53737581 66.39649932 -59.65121908 67.78244841 -61.7421875 69.22265625 C-64.06218269 70.73065312 -65.5963943 71.27589585 -68.2421875 71.84765625 C-71.34431831 68.42282056 -73.28995337 66.16121754 -73.1171875 61.41015625 C-70.20369123 54.05234365 -61.46150421 49.18324947 -55.40625 44.54296875 C-52.71124531 42.43171958 -50.15492421 40.19223859 -47.59375 37.921875 C-37.11300409 28.67723035 -26.46285625 19.59763314 -15.3671875 11.09765625 C-12.06800222 8.55710716 -9.14812435 5.83661986 -6.2421875 2.84765625 C-2.98812642 -0.20302601 -2.98812642 -0.20302601 0 0 Z M380.7578125 94.84765625 C381.7578125 96.84765625 381.7578125 96.84765625 381.7578125 96.84765625 Z M380.7578125 285.84765625 C381.7578125 288.84765625 381.7578125 288.84765625 381.7578125 288.84765625 Z " fill="#000000" transform="translate(285.2421875,135.15234375)"/>
</svg>
