<?xml version="1.0" encoding="UTF-8"?>
<svg version="1.1" xmlns="http://www.w3.org/2000/svg" width="1204" height="518">
<path d="M0 0 C1.52519276 0.08937803 3.04681929 0.24537146 4.5625 0.4375 C5.38878906 0.53933594 6.21507812 0.64117187 7.06640625 0.74609375 C7.70449219 0.82988281 8.34257813 0.91367188 9 1 C9 1.33 9 1.66 9 2 C4.38 2.33 -0.24 2.66 -5 3 C-5.33 2.34 -5.66 1.68 -6 1 C-4.7934375 1.0309375 -4.7934375 1.0309375 -3.5625 1.0625 C-1.06645115 1.29633621 -1.06645115 1.29633621 0 0 Z " fill="#000000" transform="translate(1163,114)"/>
<path d="M0 0 C0.33 0 0.66 0 1 0 C1 16.83 1 33.66 1 51 C0.67 51 0.34 51 0 51 C0 34.17 0 17.34 0 0 Z " fill="#000000" transform="translate(1056,118)"/>
<path d="M0 0 C0.33 0 0.66 0 1 0 C1.33 22.11 1.66 44.22 2 67 C1.34 67 0.68 67 0 67 C0 44.89 0 22.78 0 0 Z " fill="#000000" transform="translate(1202,119)"/>
<path d="M0 0 C5.94 0 11.88 0 18 0 C18 0.33 18 0.66 18 1 C12.06 1 6.12 1 0 1 C0 0.67 0 0.34 0 0 Z " fill="#000000" transform="translate(1157,184)"/>
<path d="M0 0 C0.33 0 0.66 0 1 0 C1 74.25 1 148.5 1 225 C0.34 225.33 -0.32 225.66 -1 226 C-0.67 151.42 -0.34 76.84 0 0 Z " fill="#000000" transform="translate(593,225)"/>
<path d="M0 0 C2.1971656 3.48961595 1.7876531 5.06672519 1 9 C0.90844394 11.53544803 0.86494397 14.04261145 0.87301636 16.57748413 C0.87145637 17.33227448 0.86989638 18.08706483 0.86828911 18.86472762 C0.86430609 21.38949332 0.86745834 23.91419871 0.87060547 26.43896484 C0.86925021 28.25098201 0.86746957 30.06299889 0.86529541 31.87501526 C0.86073527 36.79446065 0.862505 41.71388507 0.8656745 46.63333082 C0.86820618 51.78303045 0.86585823 56.93272828 0.86428833 62.08242798 C0.86246868 70.73268964 0.86486727 79.38294276 0.86962891 88.03320312 C0.87506769 98.02892631 0.87331083 108.02462908 0.8678025 118.02035177 C0.86326147 126.60478146 0.86262578 135.18920501 0.86524117 143.77363551 C0.86679893 148.8995838 0.86701148 154.02552251 0.86370468 159.15147018 C0.86081173 163.97280518 0.86282787 168.79411393 0.86859894 173.61544609 C0.86991904 175.38309752 0.86954516 177.15075117 0.86733627 178.91840172 C0.86459519 181.33514696 0.86804203 183.75180863 0.87301636 186.16854858 C0.87078564 186.86457353 0.86855491 187.56059848 0.86625659 188.27771509 C0.87919234 191.52824522 1.08929994 194.52759489 1.63293648 197.73946571 C2.02345868 201.20837767 1.65552774 202.09300433 0 205 C-0.73480613 199.23876165 -1.14537059 193.59571919 -1.12698364 187.78964233 C-1.12854363 187.01510008 -1.13010362 186.24055782 -1.13171089 185.44254458 C-1.13566543 182.87492511 -1.13255297 180.30736589 -1.12939453 177.73974609 C-1.13075101 175.88773057 -1.13253233 174.03571531 -1.13470459 172.18370056 C-1.13924889 167.17358595 -1.1375019 162.16349201 -1.1343255 157.15337706 C-1.13178713 151.90226913 -1.13414349 146.65116293 -1.13571167 141.40005493 C-1.13752873 132.58538496 -1.13513887 123.77072338 -1.13037109 114.95605469 C-1.12492599 104.77165981 -1.1266948 94.58728495 -1.1321975 84.40289056 C-1.13673779 75.64853029 -1.13737478 66.89417604 -1.13475883 58.13981497 C-1.13320155 52.91555746 -1.13298735 47.69130936 -1.13629532 42.46705246 C-1.13918744 37.55702084 -1.13717365 32.647015 -1.13140106 27.73698616 C-1.13008081 25.93708018 -1.13045509 24.13717203 -1.13266373 22.33726692 C-1.13540405 19.87694562 -1.13195896 17.41670647 -1.12698364 14.95639038 C-1.12921436 14.24753012 -1.13144509 13.53866986 -1.13374341 12.80832899 C-1.11662262 8.43088562 -0.70574467 4.30667483 0 0 Z " fill="#000000" transform="translate(667,225)"/>
<path d="M0 0 C0.33 0 0.66 0 1 0 C1 92.73 1 185.46 1 281 C0.67 281 0.34 281 0 281 C0 188.27 0 95.54 0 0 Z " fill="#000000" transform="translate(1056,234)"/>
<path d="M0 0 C0.33 0 0.66 0 1 0 C1 5.61 1 11.22 1 17 C0.67 17 0.34 17 0 17 C0 11.39 0 5.78 0 0 Z " fill="#000000" transform="translate(425,242)"/>
<path d="M0 0 C0.33 0 0.66 0 1 0 C1 20.46 1 40.92 1 62 C0.67 62 0.34 62 0 62 C0 41.54 0 21.08 0 0 Z " fill="#000000" transform="translate(34,335)"/>
<path d="M0 0 C0.33 0 0.66 0 1 0 C1 6.27 1 12.54 1 19 C0.67 19 0.34 19 0 19 C-1.31909709 12.5510809 -0.69508823 6.51244208 0 0 Z " fill="#000000" transform="translate(787,394)"/>
</svg>
