<?xml version="1.0" encoding="UTF-8"?>
<svg version="1.1" xmlns="http://www.w3.org/2000/svg" width="1258" height="579">
<path d="M0 0 C415.14 0 830.28 0 1258 0 C1258 191.07 1258 382.14 1258 579 C842.86 579 427.72 579 0 579 C0 387.93 0 196.86 0 0 Z M843 62 C841.71455333 63.11140167 840.42345817 64.21632794 839.125 65.3125 C836.62737344 67.43223507 834.27262682 69.6364681 832 72 C828.31512323 69.78907394 825.44433797 67.50970464 822.5 64.375 C814.76314106 56.44582908 805.20592489 50.31430637 795.40234375 45.25390625 C793 44 793 44 790.55859375 42.48046875 C785.16661046 39.36052727 778.27943322 36.43717691 771.9375 36.9375 C768.87341736 37.78925085 768.87341736 37.78925085 766.9375 40.25 C765.73845736 42.92628145 765.73845736 42.92628145 766.65625 45.40625 C768.22957793 48.4431388 769.95485081 50.0463528 772.5625 52.25 C790.0145925 67.46077037 800.47588142 83.87092313 802.18651366 107.58566594 C802.33875686 110.47570942 802.45970412 113.3651363 802.56613159 116.25723267 C802.60741302 117.34420083 802.64869446 118.43116899 802.69122684 119.55107558 C803.1437414 132.55662115 803.14029333 145.55993826 803.12939453 158.57177734 C803.13020487 161.33950378 803.13250099 164.10722859 803.13470459 166.87495422 C803.13910195 173.54684059 803.13821299 180.21871557 803.13529195 186.89060234 C803.13301348 192.3245568 803.13273585 197.75850812 803.13381577 203.19246292 C803.133969 203.97225811 803.13412223 204.7520533 803.13428011 205.55547864 C803.1345999 207.14071054 803.13492412 208.72594245 803.1352527 210.31117435 C803.13808991 225.10294186 803.13484844 239.89470314 803.12945233 254.68646963 C803.12498768 267.3147459 803.12576088 279.94301296 803.13037109 292.57128906 C803.13575119 307.31485318 803.13781355 322.05841184 803.13475883 336.8019768 C803.13444036 338.38128638 803.13412598 339.96059596 803.13381577 341.53990555 C803.13358435 342.70480181 803.13358435 342.70480181 803.13334826 343.89323132 C803.13249323 349.30501624 803.13392389 354.71679763 803.13629532 360.128582 C803.13913204 366.74628679 803.13827505 373.36397976 803.13301457 379.98168324 C803.13042858 383.34310526 803.12984345 386.70449192 803.13266373 390.06591606 C803.14267869 403.23111061 803.05327617 416.39144077 802.67941284 429.5519104 C802.65743493 430.62831012 802.63545702 431.70470984 802.61281312 432.81372774 C802.08305651 448.46783294 797.54042093 460.45482672 787 472 C785.51904955 473.23160675 784.01997853 474.44189615 782.5 475.625 C779.69368232 477.90519398 779.69368232 477.90519398 778.5 481.20703125 C778.4483317 483.66893281 778.4483317 483.66893281 779 487 C784.57578644 489.93996012 790.01152705 492.08188761 796 494 C819.8540146 501.8540146 819.8540146 501.8540146 826 508 C826.99 508 827.98 508 829 508 C829 508.66 829 509.32 829 510 C830.70056743 511.3378281 830.70056743 511.3378281 832.91015625 512.6640625 C838.86995005 516.50494822 844.33280981 520.89224694 849.86523438 525.31640625 C850.63029297 525.92097656 851.39535156 526.52554687 852.18359375 527.1484375 C852.86993896 527.69677246 853.55628418 528.24510742 854.26342773 528.81005859 C855.92411462 530.18841779 855.92411462 530.18841779 858 530 C858.495 531.485 858.495 531.485 859 533 C861.36587793 535.35719204 861.36587793 535.35719204 864.25 537.6875 C865.68085937 538.89986328 865.68085937 538.89986328 867.140625 540.13671875 C870.1860774 542.12125535 871.45959842 542.55072913 875 542 C877.32511472 540.73647948 877.32511472 540.73647948 879 539 C879 538.34 879 537.68 879 537 C879.69996094 536.76410156 880.39992188 536.52820313 881.12109375 536.28515625 C884.50028632 534.77667001 887.1954689 532.73103805 890.0625 530.4375 C891.22473532 529.52537219 892.38750671 528.61392708 893.55078125 527.703125 C894.13166504 527.24615234 894.71254883 526.78917969 895.31103516 526.31835938 C897.76319911 524.40426783 900.25527484 522.54564012 902.75 520.6875 C907.69355446 516.99291234 912.60116475 513.25364596 917.5 509.5 C922.57563559 505.61481319 927.65155509 501.73022805 932.75 497.875 C933.65234375 497.19179688 934.5546875 496.50859375 935.484375 495.8046875 C938 494 938 494 940.71484375 492.39453125 C943.17917039 490.89066012 944.43006274 489.39622004 946 487 C944.54163786 484.00072692 942.98260683 481.10041768 941.25 478.25 C940.78078125 477.45078125 940.3115625 476.6515625 939.828125 475.828125 C938.07710891 473.73394998 938.07710891 473.73394998 935.11328125 473.453125 C931.12933625 474.15293968 929.73603023 475.62607355 926.9375 478.5 C922.67344148 482.86510256 922.67344148 482.86510256 919.484375 483.50390625 C916.28092418 482.85414972 914.77137058 481.57935917 912.3125 479.4375 C909.05831457 476.70015578 905.81842493 474.09490179 902.3125 471.6875 C897.83501212 468.59539114 893.40507064 465.4441087 889 462.25 C888.34040283 461.77780029 887.68080566 461.30560059 887.0012207 460.8190918 C884.09285322 458.70167917 882.01422052 457.02133078 880 454 C879.748151 451.61582851 879.748151 451.61582851 879.74552441 448.73106384 C879.73969221 447.63198857 879.73386002 446.5329133 879.72785109 445.40053272 C879.73163042 444.18804198 879.73540974 442.97555124 879.73930359 441.72631836 C879.73356527 439.79941052 879.73356527 439.79941052 879.72771102 437.83357525 C879.71738883 434.25939069 879.71962377 430.68530598 879.72389162 427.11111307 C879.72635199 423.25768853 879.71735198 419.40428847 879.70985413 415.5508728 C879.6970747 407.9896171 879.69531838 400.42839687 879.69765439 392.86713219 C879.69943819 386.70474223 879.6976865 380.54236303 879.69342995 374.37997437 C879.69283476 373.50237054 879.69223957 372.62476672 879.69162634 371.72056884 C879.69041449 369.93725403 879.68920036 368.15393923 879.68798397 366.37062442 C879.67709088 349.61724687 879.67927617 332.8638894 879.68536881 316.11051071 C879.69050983 300.86038501 879.67936073 285.61032374 879.66027059 270.36021078 C879.64077111 254.66067847 879.63265909 238.96117643 879.63639385 223.26163197 C879.63829151 214.46491701 879.63596288 205.66825648 879.62167931 196.87155151 C879.60960748 189.36089744 879.60853141 181.85033105 879.62046947 174.33967543 C879.62625693 170.52370962 879.62775087 166.70790279 879.61546707 162.8919487 C879.56777578 146.922201 880.01559099 131.0924691 881.34358215 115.17260742 C881.40239957 114.442377 881.46121699 113.71214658 881.52181675 112.95978796 C883.21156814 92.46048538 887.87918697 71.63485699 903.21484375 56.8671875 C905.23035032 55.18960604 905.23035032 55.18960604 905 53 C905.54140625 52.75894531 906.0828125 52.51789062 906.640625 52.26953125 C909.58984646 50.68261573 912.09757111 48.73179428 914.75 46.6875 C918.8280414 43.56991432 922.93650545 40.64977103 927.37890625 38.0703125 C929.22550183 36.85111446 930.6088089 35.72857577 932 34 C932.5154245 31.20118956 932.22876238 28.88240605 932 26 C930.16037563 23.72077818 930.16037563 23.72077818 927.375 23.828125 C893.81109024 25.53739818 867.30120158 39.40572201 843 62 Z M108 83 C107.53271484 83.58249512 107.06542969 84.16499023 106.58398438 84.76513672 C104.23123917 87.70118701 101.90825485 90.65832669 99.609375 93.63671875 C96.62430172 97.50097238 93.53212854 101.27256443 90.4296875 105.04296875 C87.52311821 108.58038507 84.63569654 112.13305203 81.75 115.6875 C81.19844238 116.3666748 80.64688477 117.04584961 80.07861328 117.74560547 C78.94883335 119.13683288 77.81911376 120.52810931 76.68945312 121.91943359 C74.49885691 124.61715916 72.3074741 127.31424501 70.1159668 130.01123047 C69.03660436 131.33960128 67.95734041 132.66805211 66.87817383 133.99658203 C64.15880242 137.34419241 61.43811487 140.69071726 58.71484375 144.03515625 C52.86201356 151.2258508 47.0384101 158.43815041 41.25561523 165.68530273 C37.51856866 170.36427268 33.74124059 175.00780974 29.9375 179.6328125 C28.9784375 180.80457031 28.9784375 180.80457031 28 182 C27.2575 182.88429688 26.515 183.76859375 25.75 184.6796875 C23.79928388 186.78175132 23.79928388 186.78175132 24 189 C23.34 189 22.68 189 22 189 C17.57653614 193.9596413 16.83256572 197.38040602 16.75 203.9375 C16.72421875 205.16339844 16.6984375 206.38929688 16.671875 207.65234375 C17.03335351 211.34028517 17.35104677 212.47985063 20 215 C23.19356333 215.55392107 23.19356333 215.55392107 26.85546875 215.390625 C27.51710526 215.38496521 28.17874176 215.37930542 28.86042786 215.37347412 C30.97019332 215.35111247 33.07824952 215.30092371 35.1875 215.25 C36.61911606 215.2299344 38.0507588 215.21168372 39.48242188 215.1953125 C42.98883515 215.15125069 46.49425072 215.08222777 50 215 C49.96363813 243.53580719 49.90690687 272.0715063 49.82207905 300.60721314 C49.81206262 303.98268919 49.80221832 307.35816572 49.79248047 310.73364258 C49.7905391 311.40558686 49.78859772 312.07753114 49.78659752 312.76983737 C49.755649 323.62346345 49.7386169 334.47706842 49.72680578 345.33073027 C49.71435704 356.48294887 49.68647811 367.63507112 49.64538693 378.78722471 C49.62281258 385.04477745 49.60708692 391.30217351 49.60811615 397.55977058 C49.60886513 403.45887836 49.59081873 409.35764031 49.55883217 415.25665855 C49.5503672 417.41278123 49.54855989 419.56894285 49.55419731 421.72507477 C49.58949302 437.30966596 49.24388004 453.22899536 39 466 C35.62890646 469.37109354 32.01766722 472.40782723 28.27734375 475.359375 C26.67376777 476.65214231 26.67376777 476.65214231 25 479 C24.66339855 482.64407137 24.66339855 482.64407137 26 486 C29.3600679 488.41190059 32.75913133 489.71545741 36.6875 490.9375 C54.07967952 496.59417975 71.34141514 505.0752528 85.8359375 516.3359375 C87.40080323 517.53924581 88.99328057 518.70692942 90.6015625 519.8515625 C97.83922405 525.0603378 104.203758 530.79283595 110.48046875 537.12280273 C111.125 537.75387939 111.76953125 538.38495605 112.43359375 539.03515625 C113.00134521 539.6062915 113.56909668 540.17742676 114.15405273 540.76586914 C116.61791661 542.41311578 118.08861532 542.38698688 121 542 C122.85363583 541.07113432 122.85363583 541.07113432 124.4453125 539.6640625 C125.04730469 539.17679688 125.64929688 538.68953125 126.26953125 538.1875 C126.88183594 537.671875 127.49414062 537.15625 128.125 536.625 C129.35620041 535.61649072 130.58795148 534.60865323 131.8203125 533.6015625 C132.62879639 532.92601318 132.62879639 532.92601318 133.45361328 532.23681641 C134.90640169 531.07486091 136.45213267 530.03191156 138 529 C138 528.34 138 527.68 138 527 C138.8818396 526.58004761 138.8818396 526.58004761 139.78149414 526.15161133 C143.25398104 524.34906696 146.29241768 522.00250194 149.4375 519.6875 C150.09298828 519.21376953 150.74847656 518.74003906 151.42382812 518.25195312 C154.29304719 516.14824286 156.91429969 514.08583787 159.43359375 511.5625 C162.89489457 508.10646752 166.72350145 505.25193961 170.625 502.3125 C171.388125 501.73177734 172.15125 501.15105469 172.9375 500.55273438 C175.91912904 498.29035796 178.88465741 496.07689506 182 494 C182 493.34 182 492.68 182 492 C182.53238281 491.75894531 183.06476563 491.51789063 183.61328125 491.26953125 C186.66776271 489.64480707 189.38623241 487.7176513 192.1875 485.6875 C193.25355469 484.92824219 194.31960937 484.16898437 195.41796875 483.38671875 C198.13701871 481.23302224 198.13701871 481.23302224 198.9765625 478.3828125 C199.22062407 475.77620703 199.22062407 475.77620703 197.1875 473.1875 C196.465625 472.465625 195.74375 471.74375 195 471 C194.34 471 193.68 471 193 471 C192.34 469.68 191.68 468.36 191 467 C185.38387828 467.41822183 182.35491757 469.52581309 178.125 472.9375 C177.53203125 473.39318359 176.9390625 473.84886719 176.328125 474.31835938 C174.83962495 475.48960999 173.41366855 476.73944392 172 478 C172 478.66 172 479.32 172 480 C169.80827753 481.37997341 168.43392986 482.02021895 165.8203125 481.8984375 C161.75625468 480.60379304 158.88721874 478.1806959 155.5625 475.5625 C154.14301289 474.469942 152.72241756 473.37882249 151.30078125 472.2890625 C150.22884521 471.46390137 150.22884521 471.46390137 149.13525391 470.62207031 C145.8899272 468.15672037 142.57652265 465.79157914 139.25 463.4375 C137.16462466 461.96113068 135.08125676 460.48219232 133 459 C132.29108486 458.6586864 131.58216972 458.3173728 130.85177231 457.96571636 C127.75666981 454.68016468 128.44474 450.83270053 128.48101807 446.48994446 C128.47351681 445.50324506 128.46601556 444.51654567 128.458287 443.4999463 C128.43791326 440.17854579 128.44613164 436.85782164 128.45410156 433.53637695 C128.44537184 431.16157349 128.43488818 428.78677592 128.42277527 426.4119873 C128.39772684 420.62308356 128.39103158 414.83436602 128.3923355 409.04541294 C128.39286926 402.31038399 128.37091451 395.57548592 128.34752855 388.84050443 C128.30642062 376.82946986 128.28312783 364.81846926 128.27099609 352.80737305 C128.25917219 341.13872002 128.23898436 329.47013099 128.20751953 317.80151367 C128.20461538 316.72289703 128.20461538 316.72289703 128.20165256 315.62249015 C128.19188815 312.01514049 128.18195901 308.40779131 128.17194796 304.80044234 C128.08909034 274.86699193 128.03542315 244.93354642 128 215 C129.26787102 215.00666183 129.26787102 215.00666183 130.56135559 215.01345825 C138.52184267 215.05351026 146.48229598 215.08397182 154.4428606 215.10362434 C158.53559983 215.1140675 162.6282559 215.12823636 166.72094727 215.15087891 C170.66963711 215.17258839 174.61824689 215.18456462 178.56699181 215.18975449 C180.07450305 215.19345366 181.58200986 215.20067711 183.08948708 215.21146011 C185.19883363 215.22595004 187.30784812 215.22797902 189.41723633 215.22705078 C190.61858719 215.231492 191.81993805 215.23593323 193.05769348 215.24050903 C196.18954224 215.22396625 196.18954224 215.22396625 199 213 C199.43554127 211.14996109 199.43554127 211.14996109 199.34057617 209.00927734 C199.34023628 207.77822769 199.34023628 207.77822769 199.33988953 206.52230835 C199.32440567 205.63580597 199.30892181 204.74930359 199.29296875 203.8359375 C199.28872391 202.92872955 199.28447906 202.02152161 199.28010559 201.08682251 C199.26328133 198.18258268 199.2256226 195.2790309 199.1875 192.375 C199.17245799 190.40886417 199.15876875 188.44271749 199.14648438 186.4765625 C199.11336557 181.65077561 199.06155786 176.82550455 199 172 C195.45988244 169.80918009 192.60474128 169.75723381 188.48730469 169.77294922 C187.52082504 169.77251114 187.52082504 169.77251114 186.53482056 169.77206421 C184.41369979 169.77345306 182.2929341 169.78899284 180.171875 169.8046875 C178.69785758 169.80841922 177.22383768 169.81126544 175.74981689 169.81326294 C171.87655753 169.82088689 168.00344895 169.84052465 164.13024902 169.8626709 C160.1753951 169.88315606 156.22051673 169.89227036 152.265625 169.90234375 C144.51034804 169.92377179 136.75519518 169.95789268 129 170 C128.70384405 136.19348058 128.70384405 136.19348058 130 120.3125 C130.79512224 110.38151415 131.24311875 100.50174222 131.29956055 90.5418396 C131.30812245 89.10806381 131.32171712 87.67430842 131.34057617 86.2406311 C131.3642077 84.25169255 131.36427947 82.26251618 131.36328125 80.2734375 C131.36626221 79.13310059 131.36924316 77.99276367 131.37231445 76.81787109 C131.23615928 73.99346826 131.23615928 73.99346826 129.59448242 72.15258789 C126.92511927 70.2230115 124.83677074 70.03135805 121.5859375 70.15234375 C115.63550534 72.10286305 111.76021546 78.24008588 108 83 Z M1006 138 C1004.07449927 142.06138784 1003.74876014 145.31302039 1003.74552441 149.78854465 C1003.74231793 150.46171147 1003.73911145 151.13487828 1003.73580781 151.82844409 C1003.72749393 154.08839843 1003.73343684 156.34808872 1003.73930359 158.60804749 C1003.73628355 160.24293471 1003.73239481 161.87782053 1003.72771102 163.51270384 C1003.71740353 168.00873214 1003.71961981 172.50468095 1003.72389162 177.00071585 C1003.7263538 181.84806601 1003.71735109 186.69539677 1003.70985413 191.54273987 C1003.69709172 201.0397841 1003.69531529 210.53680009 1003.69765439 220.03385145 C1003.69943571 227.75013979 1003.69769192 235.46641953 1003.69342995 243.18270683 C1003.69283476 244.27991754 1003.69223957 245.37712825 1003.69162634 246.50758777 C1003.69041463 248.73636918 1003.68920049 250.96515058 1003.68798397 253.19393199 C1003.67710284 274.10393101 1003.67927385 295.0139139 1003.68536881 315.92391383 C1003.69054055 335.06829883 1003.67927678 354.21263299 1003.66027059 373.35700793 C1003.6409171 393.00132593 1003.63263168 412.64561985 1003.63639385 432.28994745 C1003.63830941 443.32408886 1003.63578366 454.35818698 1003.62167931 465.39232063 C1003.60979633 474.78383604 1003.60832596 484.17528148 1003.62046947 493.5667978 C1003.62637943 498.36117945 1003.62739941 503.15543292 1003.61546707 507.94980621 C1003.60468012 512.33478404 1003.60762513 516.71952557 1003.62172876 521.104492 C1003.62439561 522.69457802 1003.62194744 524.28468214 1003.61399289 525.8747505 C1003.60395912 528.02922158 1003.61224562 530.18285968 1003.62526989 532.33729649 C1003.62521487 533.53602125 1003.62515986 534.73474601 1003.62510318 535.96979576 C1004.03481887 539.28143283 1004.62712622 540.68505569 1007 543 C1009.94749484 543.59569525 1009.94749484 543.59569525 1013.36743164 543.48583984 C1014.68211929 543.4919931 1015.99680695 543.49814636 1017.35133362 543.50448608 C1018.78761494 543.49069115 1020.22388932 543.47615725 1021.66015625 543.4609375 C1023.13081196 543.45855323 1024.60147075 543.45764772 1026.0721283 543.4581604 C1029.15317877 543.45503251 1032.23376385 543.43846729 1035.31469727 543.41162109 C1039.26831853 543.37761101 1043.22142906 543.36999332 1047.17517948 543.37151146 C1050.21118566 543.37096825 1053.2470797 543.36000956 1056.28304863 543.34550858 C1057.74112537 543.33913512 1059.19921484 543.3352004 1060.65730476 543.33372116 C1062.69223715 543.32939584 1064.72712221 543.31032396 1066.76196289 543.29052734 C1067.92095596 543.28290375 1069.07994904 543.27528015 1070.27406311 543.26742554 C1073.14635528 543.27677123 1073.14635528 543.27677123 1075 541 C1075.3012265 538.85193825 1075.3012265 538.85193825 1075.24774647 536.33253765 C1075.25431946 534.84726323 1075.25431946 534.84726323 1075.26102525 533.33198327 C1075.25300725 531.68829372 1075.25300725 531.68829372 1075.24482727 530.01139832 C1075.24822413 528.27453348 1075.24822413 528.27453348 1075.25168961 526.50258046 C1075.25608486 523.27865107 1075.25153094 520.05487255 1075.243379 516.83095491 C1075.2368071 513.35778282 1075.24179471 509.88462672 1075.24560547 506.41145325 C1075.25083533 500.38953255 1075.2493276 494.36764401 1075.24382973 488.34572411 C1075.23562837 478.82976517 1075.24683277 469.31387589 1075.2610321 459.79792786 C1075.26563352 456.54397504 1075.27008382 453.29002203 1075.27447033 450.03606892 C1075.27611754 448.81619387 1075.27611754 448.81619387 1075.27779803 447.57167488 C1075.28997782 438.30974886 1075.2975258 429.04782061 1075.3034668 419.78588867 C1075.30401486 418.93899663 1075.30456292 418.09210459 1075.30512758 417.21954916 C1075.31358727 403.49461197 1075.31024888 389.76969439 1075.30431245 376.04475709 C1075.29869824 361.96128203 1075.31221374 347.8779059 1075.34186524 333.79446107 C1075.35942502 325.10346847 1075.36101795 316.41276151 1075.34222009 307.72177014 C1075.33062886 301.76652732 1075.337038 295.81147749 1075.3576893 289.85625979 C1075.36902865 286.41857656 1075.37214325 282.98139033 1075.35351372 279.54372787 C1075.3374959 275.81853683 1075.35197033 272.09468246 1075.3742218 268.36955261 C1075.3621843 267.28045174 1075.35014681 266.19135087 1075.33774453 265.06924695 C1075.42743297 257.73554345 1075.42743297 257.73554345 1078.3916502 253.92758656 C1079.25240563 253.29148299 1080.11316107 252.65537943 1081 252 C1081.77859375 251.27039063 1082.5571875 250.54078125 1083.359375 249.7890625 C1091.44187464 242.47255139 1099.32780185 236.06138319 1109 231 C1110.03640625 230.43152344 1111.0728125 229.86304688 1112.140625 229.27734375 C1122.59301269 223.5528384 1132.54705066 219.31750095 1144 216 C1144.9075 215.72027344 1145.815 215.44054687 1146.75 215.15234375 C1159.31697819 211.43087253 1171.66040314 210.81162686 1184.6875 210.75 C1185.91065918 210.74073486 1187.13381836 210.73146973 1188.39404297 210.72192383 C1195.23720549 210.74547635 1201.70468627 211.24381196 1208.42651367 212.546875 C1212.06054896 213.1867355 1215.31978934 213.2726082 1219 213 C1221.80565212 210.19434788 1221.26580619 208.41767726 1221.29052734 204.48657227 C1221.29724457 203.81810272 1221.30396179 203.14963318 1221.31088257 202.46090698 C1221.32991685 200.24599829 1221.33378936 198.03139169 1221.3359375 195.81640625 C1221.34236148 194.27945327 1221.34908953 192.74250152 1221.35610962 191.20555115 C1221.36809582 187.98165043 1221.37178906 184.75785698 1221.37060547 181.53393555 C1221.37040215 177.39974672 1221.39771032 173.26624439 1221.43214989 169.13221836 C1221.45437079 165.95721773 1221.45844451 162.7823836 1221.45738602 159.60731316 C1221.45974902 158.08304413 1221.46861179 156.55877099 1221.48405075 155.03457832 C1221.503616 152.90350181 1221.49791216 150.77392212 1221.48583984 148.64282227 C1221.48868988 147.42973892 1221.49153992 146.21665558 1221.49447632 144.96681213 C1221.2852717 141.90927228 1221.2852717 141.90927228 1219.08088684 140.1269989 C1214.67890706 137.74290656 1210.40212853 137.82684636 1205.48046875 137.796875 C1204.74484207 137.79117493 1204.00921539 137.78547485 1203.251297 137.77960205 C1201.69041369 137.77016519 1200.12951058 137.76362329 1198.56860352 137.75976562 C1196.233506 137.75018868 1193.89933936 137.71920986 1191.56445312 137.6875 C1150.48376618 137.39262726 1115.77301807 161.87378503 1085.33984375 187.08984375 C1084.56769531 187.72019531 1083.79554687 188.35054687 1083 189 C1082.32066406 189.55816406 1081.64132812 190.11632812 1080.94140625 190.69140625 C1078.92071497 192.05344162 1077.35287231 192.47622219 1075 193 C1075.00444122 192.34045319 1075.00888245 191.68090637 1075.01345825 191.00137329 C1075.05759777 184.15621094 1075.08782726 177.31108879 1075.10986328 170.46582031 C1075.11994038 167.90883747 1075.13360226 165.35186621 1075.15087891 162.79492188 C1075.17505217 159.12627308 1075.18646585 155.45777621 1075.1953125 151.7890625 C1075.21079636 150.0655809 1075.21079636 150.0655809 1075.22659302 148.30728149 C1075.22674408 147.2463327 1075.22689514 146.18538391 1075.22705078 145.09228516 C1075.231492 144.15518707 1075.23593323 143.21808899 1075.24050903 142.25259399 C1075.2169323 139.79823929 1075.2169323 139.79823929 1073 138 C1070.08497733 137.70620173 1070.08497733 137.70620173 1066.62255859 137.77294922 C1065.64188667 137.77251114 1065.64188667 137.77251114 1064.6414032 137.77206421 C1062.47694704 137.77345935 1060.31283364 137.7890288 1058.1484375 137.8046875 C1056.64914132 137.80841698 1055.1498427 137.81126426 1053.65054321 137.81326294 C1049.70163257 137.82090452 1045.75286871 137.8405574 1041.80401611 137.8626709 C1037.77561428 137.8831181 1033.74718876 137.89226224 1029.71875 137.90234375 C1021.81243259 137.92380289 1013.90623455 137.95794505 1006 138 Z M295.25 160.375 C294.45078125 161.00148437 293.6515625 161.62796875 292.828125 162.2734375 C292.22484375 162.84320313 291.6215625 163.41296875 291 164 C291 164.66 291 165.32 291 166 C290.47535156 166.21527344 289.95070313 166.43054688 289.41015625 166.65234375 C286.05457037 168.52864379 283.3094117 171.03515512 280.4375 173.5625 C279.17785545 174.65583811 277.91743096 175.74827826 276.65625 176.83984375 C276.03492188 177.37851074 275.41359375 177.91717773 274.7734375 178.47216797 C267.39454061 184.82915265 259.72673022 190.79022249 251.9453125 196.640625 C249.08535211 198.93162775 246.57455302 201.39853527 244 204 C243.01 204.495 243.01 204.495 242 205 C242 205.66 242 206.32 242 207 C241.45730469 207.23847656 240.91460937 207.47695312 240.35546875 207.72265625 C237.38922775 209.3312148 234.92990003 211.30933362 232.3125 213.4375 C231.33925781 214.21996094 230.36601562 215.00242188 229.36328125 215.80859375 C226.78339774 217.84876763 226.78339774 217.84876763 226 221 C227.25289184 223.46103754 228.51943914 225.68990504 230 228 C230.45375 228.804375 230.9075 229.60875 231.375 230.4375 C232.95816185 232.26766461 232.95816185 232.26766461 235.7265625 232.3671875 C239.93908495 231.89466112 241.7372457 230.351233 245 227.6875 C254.50724638 220 254.50724638 220 259.5625 220 C265.2071262 222.31574408 268.42587805 227.37714647 270.77734375 232.7890625 C275.88485758 246.35827833 275.31909681 261.46237306 275.36987305 275.72973633 C275.38407343 277.77481575 275.3989916 279.8198903 275.41456604 281.86495972 C275.46136151 288.52060866 275.48742369 295.17626814 275.51171875 301.83203125 C275.52113929 304.13462542 275.53063388 306.43721929 275.54020119 308.73981285 C275.57860494 318.3146904 275.61182777 327.88955966 275.63057232 337.46449757 C275.65742873 351.14258241 275.71521851 364.81972631 275.81633729 378.49747068 C275.88521369 388.14541132 275.91953714 397.79310166 275.92813712 407.44128245 C275.93413146 413.19301178 275.95500353 418.94376775 276.01270103 424.69523048 C276.06610889 430.09908834 276.07659289 435.5013617 276.05455589 440.90542221 C276.05384074 442.88312474 276.06842367 444.86090364 276.09976578 446.83835793 C276.35091729 463.61243652 276.35091729 463.61243652 270.63948059 470.04814148 C269.12907389 471.40665416 267.58530882 472.72969254 266 474 C264.89295172 475.09213882 263.79623412 476.19495001 262.71484375 477.3125 C260.840766 479.12595357 258.96574364 480.93843138 257.08984375 482.75 C254.77315044 484.73243065 254.77315044 484.73243065 255 487 C254.01 487.33 253.02 487.66 252 488 C252 488.66 252 489.32 252 490 C251.34 490 250.68 490 250 490 C249.04497842 491.72476911 249.04497842 491.72476911 249 494 C252.56535152 498.37043089 257.26194711 501.95635013 262 505 C262.66 505 263.32 505 264 505 C264 505.66 264 506.32 264 507 C265.58037911 508.24850906 265.58037911 508.24850906 267.6875 509.5 C271.64914851 512.052513 275.41145186 514.79025315 279.125 517.6875 C284.10528745 521.55558297 289.1202849 525.37130378 294.1875 529.125 C294.83541504 529.61057373 295.48333008 530.09614746 296.15087891 530.59643555 C299.2475293 533.14438497 299.2475293 533.14438497 303 534 C303 534.66 303 535.32 303 536 C304.83797376 537.59924008 304.83797376 537.59924008 307.1875 539.125 C308.35345703 539.93324219 308.35345703 539.93324219 309.54296875 540.7578125 C312.37435559 542.18926085 313.86403946 542.28705735 317 542 C318.96563812 540.99305624 318.96563812 540.99305624 320.72265625 539.46484375 C321.41552734 538.91054688 322.10839844 538.35625 322.82226562 537.78515625 C323.56154297 537.17542969 324.30082031 536.56570313 325.0625 535.9375 C326.67695821 534.64274962 328.29289726 533.34984401 329.91015625 532.05859375 C330.74691895 531.38683105 331.58368164 530.71506836 332.44580078 530.02294922 C336.56493738 526.76055524 340.78220767 523.63309959 345 520.5 C356.14344762 512.18753166 367.16643036 503.7134973 378 495 C377.43065392 488.54741114 372.637031 484.15733814 368 480 C367.34 480 366.68 480 366 480 C365.67 479.01 365.34 478.02 365 477 C364.34 477 363.68 477 363 477 C362.7421875 476.40445312 362.484375 475.80890625 362.21875 475.1953125 C360.56978595 472.22506315 358.26256182 470.49862048 355.65625 468.3671875 C349.86738448 460.09347876 351.7174105 447.26551973 351.74121094 437.59448242 C351.73849739 435.73907331 351.73493442 433.88366529 351.73059082 432.02825928 C351.72151099 427.01418572 351.72499199 422.0001949 351.73134899 416.98611999 C351.73642806 411.73141117 351.7317126 406.47670923 351.72857666 401.22200012 C351.72494418 392.40490451 351.72971895 383.58784247 351.73925781 374.77075195 C351.75015786 364.57775541 351.74660265 354.38483879 351.735605 344.19184417 C351.72653181 335.43154503 351.7252465 326.67126996 351.73048234 317.91096765 C351.73359968 312.68230746 351.73401747 307.45368486 351.72740936 302.22502708 C351.72163549 297.31413905 351.72563357 292.40335429 351.73719788 287.49247742 C351.73984351 285.69011926 351.73908102 283.88775242 351.73467255 282.08539772 C351.7292123 279.62653163 351.73605681 277.16799715 351.74603271 274.70915222 C351.74157127 273.9951484 351.73710983 273.28114457 351.73251319 272.54550427 C351.76360457 268.5981967 352.1786219 265.52364681 354 262 C355.7265625 260.48828125 355.7265625 260.48828125 357.625 259.3125 C359.49905763 258.17891777 359.49905763 258.17891777 361 257 C361 256.34 361 255.68 361 255 C361.53496094 254.77441406 362.06992187 254.54882812 362.62109375 254.31640625 C365.77069715 252.57352227 368.35993944 250.28788327 371.0625 247.9375 C372.23110957 246.93412516 373.40039022 245.93153143 374.5703125 244.9296875 C375.15071289 244.43178711 375.73111328 243.93388672 376.32910156 243.42089844 C378.66890123 241.43117984 381.05097953 239.49579403 383.4375 237.5625 C388.47972014 233.46337553 393.41079406 229.24351759 398.31811523 224.98461914 C405.28982586 218.95876408 405.28982586 218.95876408 407.81640625 219.10546875 C410.91840866 220.37623539 413.28573019 222.2693331 415.9375 224.3125 C416.95714844 225.09238281 417.97679687 225.87226563 419.02734375 226.67578125 C420.00832031 227.44277344 420.98929688 228.20976562 422 229 C422.84433594 229.63292969 423.68867188 230.26585937 424.55859375 230.91796875 C427.4279507 233.36495636 429.79363937 236.05549865 432.125 239 C432.55425781 239.50144531 432.98351562 240.00289063 433.42578125 240.51953125 C441.72522048 251.01512978 440.47894491 265.52304021 440.53100586 278.15795898 C440.54983459 280.1780296 440.56977799 282.19809008 440.59074402 284.21813965 C440.65341875 290.81071944 440.68489288 297.40329798 440.71484375 303.99609375 C440.72699995 306.27539739 440.73935111 308.5547 440.751894 310.83400154 C440.80893267 321.53884914 440.85166277 332.24363592 440.87672991 342.94860595 C440.90607435 355.27286305 440.98514688 367.59550765 441.10623258 379.91919655 C441.19684306 389.47116846 441.24114724 399.0226787 441.25107294 408.57507187 C441.25810581 414.26969151 441.28473465 419.96258072 441.36045647 425.65673637 C441.43055321 431.01333793 441.44290602 436.36707969 441.41217232 441.72402191 C441.4106922 443.68115094 441.42948079 445.63842505 441.47084045 447.59511757 C441.79552021 463.87526687 441.79552021 463.87526687 435.60858208 470.92167574 C433.98083966 472.57300133 432.31011934 474.13617576 430.57543278 475.67416477 C429.72553996 476.4416904 428.87564714 477.20921602 428 478 C428 478.66 428 479.32 428 480 C427.01 480.33 426.02 480.66 425 481 C423.18344378 482.79246864 423.18344378 482.79246864 421.4375 484.9375 C419.66869432 487.03343963 417.94005112 489.05994888 416 491 C415.71221941 493.38261781 415.71221941 493.38261781 417 496 C419.43828454 498.39396599 422.15739732 500.33495073 424.9375 502.3125 C425.67935547 502.86228516 426.42121094 503.41207031 427.18554688 503.97851562 C430.74934086 506.92249871 430.74934086 506.92249871 435 508 C435 508.66 435 509.32 435 510 C436.88994433 511.38009888 438.83873728 512.68019207 440.8125 513.9375 C444.2140518 516.11172964 447.16474537 518.14685732 450 521 C450.66 521 451.32 521 452 521 C452 521.66 452 522.32 452 523 C453.58037911 524.24850906 453.58037911 524.24850906 455.6875 525.5 C461.05766718 528.95225033 466.04939482 532.81304061 471.08203125 536.73046875 C472.04496094 537.47941406 473.00789062 538.22835938 474 539 C474.68449219 539.59425781 475.36898437 540.18851563 476.07421875 540.80078125 C478.59467108 542.37031242 480.06239249 542.26897058 483 542 C485.03167711 540.94375695 485.03167711 540.94375695 486.86328125 539.359375 C487.57718018 538.78928711 488.2910791 538.21919922 489.02661133 537.63183594 C489.78095459 537.01083008 490.53529785 536.38982422 491.3125 535.75 C492.92605676 534.45705116 494.54066051 533.16540797 496.15625 531.875 C496.96707031 531.22273438 497.77789062 530.57046875 498.61328125 529.8984375 C502.12369792 527.10619118 505.71144662 524.42368296 509.3125 521.75 C515.18620586 517.36885221 521.02285285 512.94602112 526.80859375 508.44921875 C529.06431747 506.70260179 531.35124311 505.00764945 533.66015625 503.33203125 C534.26061768 502.88939941 534.8610791 502.44676758 535.47973633 501.99072266 C536.62902483 501.14464597 537.78608413 500.30898816 538.9519043 499.48583984 C541.41538463 497.65582588 542.8723284 496.31508387 544.03515625 493.4453125 C543.99095581 490.37092609 543.25993475 489.41524602 541.1875 487.1875 C540.64480469 486.58292969 540.10210938 485.97835938 539.54296875 485.35546875 C538.09187172 483.78000516 538.09187172 483.78000516 536 484 C535.76925781 483.44054687 535.53851562 482.88109375 535.30078125 482.3046875 C533.6577669 479.39364105 531.59421597 477.44150923 529.1875 475.125 C519.25368661 465.53684123 519.25368661 465.53684123 518.38196754 460.25594044 C518.35984529 458.8280057 518.36489859 457.39948286 518.39199829 455.97163391 C518.3870206 455.18049845 518.38204291 454.389363 518.37691438 453.57425374 C518.36636509 450.93216045 518.39146268 448.29163572 518.41650391 445.6496582 C518.41627714 443.75218564 518.41386191 441.85471226 518.40942383 439.95724487 C518.40371989 434.81064366 518.42900086 429.6646094 518.46009874 424.51811624 C518.48764859 419.13434598 518.48763896 413.75057475 518.49081421 408.366745 C518.50001551 399.32895093 518.5275427 390.29136866 518.56787109 381.25366211 C518.62473283 368.49894685 518.64702585 355.74433804 518.66315579 342.9895159 C518.67560321 334.16182044 518.69628388 325.33414119 518.7185359 316.50646567 C518.72390048 314.36394676 518.72903678 312.22142726 518.73394823 310.07890725 C518.748237 303.97424968 518.76764539 297.86965308 518.79542542 291.76504135 C518.80315667 289.91347438 518.80921427 288.06189957 518.81350327 286.21032143 C518.81970649 283.68930641 518.83205255 281.16839691 518.84609985 278.64741516 C518.84659761 277.90929338 518.84709537 277.1711716 518.84760821 276.4106825 C518.87076208 273.33279527 519.01866137 270.94401589 520 268 C521.485 267.01 521.485 267.01 523 266 C523 265.34 523 264.68 523 264 C523.58523438 263.74347656 524.17046875 263.48695313 524.7734375 263.22265625 C527.19234608 261.89437838 528.73198872 260.43475199 530.625 258.4375 C533.80555556 255.09722222 533.80555556 255.09722222 536 254 C536 253.34 536 252.68 536 252 C536.87398437 251.5978125 536.87398437 251.5978125 537.765625 251.1875 C540.02786601 249.98519009 541.80576318 248.66174087 543.75 247 C544.67039062 246.2265625 544.67039062 246.2265625 545.609375 245.4375 C547.23176376 244.09376748 547.23176376 244.09376748 547 242 C547.82371094 241.66935547 547.82371094 241.66935547 548.6640625 241.33203125 C551.72719334 239.58532955 553.95922578 237.21079013 556.375 234.6875 C559.36340728 231.61836536 562.32432265 228.60235651 565.6875 225.9375 C566.8321875 224.9784375 566.8321875 224.9784375 568 224 C568 223.34 568 222.68 568 222 C569.485 221.505 569.485 221.505 571 221 C571 220.34 571 219.68 571 219 C576.73413792 220.17623342 579.94690747 223.40163605 584.046875 227.3203125 C585.82338629 229.21734642 585.82338629 229.21734642 588 229 C588.33 229.99 588.66 230.98 589 232 C590.78447339 233.62070263 590.78447339 233.62070263 593 235.1875 C605.98329049 244.96658098 605.98329049 244.96658098 608 249 C608.1016882 251.91418573 608.14163758 254.80479289 608.13803101 257.71940613 C608.14085229 258.63341432 608.14367357 259.54742252 608.14658034 260.48912793 C608.15495478 263.57112954 608.15626706 266.65309535 608.15771484 269.73510742 C608.16238128 271.93763836 608.16752456 274.14016834 608.17311096 276.34269714 C608.18441069 281.09755043 608.1928361 285.85239738 608.19923019 290.60725975 C608.20990096 298.13486953 608.23014627 305.6624342 608.25234985 313.1900177 C608.28291694 323.75484757 608.31213373 334.31967883 608.33789062 344.88452148 C608.33952881 345.55533476 608.34116699 346.22614804 608.34285481 346.917289 C608.36906943 357.75785257 608.38774997 368.59841954 608.40448253 379.43900128 C608.42195894 390.58222714 608.4510553 401.72539116 608.4893719 412.86856538 C608.51038833 419.11936291 608.52589145 425.37006639 608.52817917 431.62090111 C608.53033741 437.51176749 608.54632623 443.40243854 608.57256889 449.29324532 C608.57972046 451.44614965 608.58188317 453.59907777 608.57846642 455.75199127 C608.55825622 470.91857676 608.94137261 485.22233553 616 499 C616.38542969 499.8971875 616.77085937 500.794375 617.16796875 501.71875 C623.0201131 514.76165237 633.13502116 524.93718671 644 534 C644.88042969 534.76699219 645.76085937 535.53398438 646.66796875 536.32421875 C647.54066406 537.06285156 648.41335938 537.80148437 649.3125 538.5625 C650.09238281 539.22378906 650.87226562 539.88507813 651.67578125 540.56640625 C654.5376035 542.33159745 655.69749876 542.68327612 659 542 C661.30092131 540.33692903 663.29819525 538.71773336 665.375 536.8125 C666.52027362 535.79737479 667.66739252 534.78432737 668.81640625 533.7734375 C669.36312988 533.2897168 669.90985352 532.80599609 670.47314453 532.30761719 C672.3334231 530.71445249 674.28313483 529.30701024 676.3125 527.9375 C677.199375 527.298125 678.08625 526.65875 679 526 C679 525.34 679 524.68 679 524 C680.32 523.67 681.64 523.34 683 523 C683 522.34 683 521.68 683 521 C683.53109375 520.7628125 684.0621875 520.525625 684.609375 520.28125 C687.69742595 518.62621616 690.4528472 516.59451872 693.25 514.5 C693.80429687 514.09652344 694.35859375 513.69304687 694.9296875 513.27734375 C696.32569165 512.23549829 697.66802392 511.12254588 699 510 C699 509.34 699 508.68 699 508 C699.57234375 507.73832031 700.1446875 507.47664063 700.734375 507.20703125 C703.16798357 505.91050531 705.11389653 504.43148658 707.25 502.6875 C708.54164063 501.63949219 708.54164063 501.63949219 709.859375 500.5703125 C710.90652051 499.7138723 711.9533644 498.85706327 713 498 C715.10545534 496.27913567 717.21169425 494.55925061 719.31933594 492.84106445 C720.76178654 491.66459192 722.20257164 490.48607409 723.64160156 489.30541992 C724.30643555 488.76248291 724.97126953 488.2195459 725.65625 487.66015625 C726.25244141 487.17168213 726.84863281 486.68320801 727.46289062 486.17993164 C729 485 729 485 731 484 C731 483.34 731 482.68 731 482 C732.32 481.34 733.64 480.68 735 480 C734.67 478.02 734.34 476.04 734 474 C733.34 474 732.68 474 732 474 C731.731875 473.401875 731.46375 472.80375 731.1875 472.1875 C729.94041405 469.8902364 729.16882981 468.47170595 727 467 C723.85078091 467.23283149 723.85078091 467.23283149 721 468 C720.67 468.99 720.34 469.98 720 471 C718.30078125 471.9921875 718.30078125 471.9921875 716 473 C715.08605469 473.49757813 714.17210937 473.99515625 713.23046875 474.5078125 C702.43440807 480.24538518 702.43440807 480.24538518 697 479 C690.44163979 473.21321158 687.25872112 463.49889327 686.68814278 454.99837494 C686.60206674 453.44267833 686.52152343 451.88666884 686.44558716 450.33044434 C686.40345978 449.49172208 686.3613324 448.65299983 686.31792843 447.78886175 C685.91144684 439.0955526 685.85888842 430.41399976 685.87060547 421.71289062 C685.8692453 419.97739119 685.86746195 418.24189205 685.86529541 416.50639343 C685.86079419 411.85555734 685.86248006 407.2047438 685.8656745 402.55390739 C685.86823638 397.6474693 685.86585003 392.74103291 685.86428833 387.83459473 C685.86247768 379.60082661 685.86484379 371.36706752 685.86962891 363.13330078 C685.87506938 353.66352633 685.87330594 344.19377343 685.8678025 334.7239995 C685.86323972 326.53994582 685.86263621 318.35589855 685.86524117 310.17184401 C685.86678663 305.30729285 685.8670459 300.44275177 685.86370468 295.57820129 C685.86077961 291.00123416 685.8628852 286.42429433 685.86859894 281.84733009 C685.86990201 280.18468585 685.86957521 278.52203923 685.86733627 276.85939598 C685.85674648 268.18414748 685.9851539 259.52449418 686.37136841 250.85705566 C686.40015418 250.08834939 686.42893995 249.31964313 686.45859802 248.52764273 C687.18806708 234.18559904 693.65301708 220.72153924 703 210 C703 209.34 703 208.68 703 208 C703.66 208 704.32 208 705 208 C705.53625 207.319375 706.0725 206.63875 706.625 205.9375 C710.43241086 201.22833393 715.03937075 197.41832754 719.9375 193.875 C722.14228425 192.12775771 722.14228425 192.12775771 723.0625 189.5625 C722.97284321 185.88657151 721.53227695 184.59891581 719 182 C717.824375 180.7934375 717.824375 180.7934375 716.625 179.5625 C714.06961926 177.66808055 714.06961926 177.66808055 711 178.4375 C707.61557532 180.20022119 705.58865071 182.21222231 703 185 C701.33729713 186.33827304 699.67083819 187.67189785 698 189 C695.72808584 191.02040748 695.72808584 191.02040748 694 193 C694 193.66 694 194.32 694 195 C692.515 195.495 692.515 195.495 691 196 C691 196.66 691 197.32 691 198 C690.40960937 198.25652344 689.81921875 198.51304687 689.2109375 198.77734375 C686.15854613 200.46532696 684.25771025 202.84133026 681.9765625 205.44140625 C679.25680887 207.58603411 677.45665463 207.99561338 674 208 C671.5078125 206.15625 671.5078125 206.15625 669.125 203.5 C665.47105284 199.57049121 661.77813999 195.94510016 657.69140625 192.47265625 C656 191 656 191 654.40234375 189.30859375 C653.07597037 187.77258477 653.07597037 187.77258477 651 188 C650.67 187.01 650.34 186.02 650 185 C649.34 185 648.68 185 648 185 C648 184.34 648 183.68 648 183 C646.53529287 181.76831446 645.06639122 180.54103997 643.5703125 179.34765625 C642 178 642 178 640.125 175.625 C637.145299 171.94419289 633.60228105 169.05707095 630 166 C628.51773659 164.73277998 627.03845204 163.4620654 625.5625 162.1875 C624.90378906 161.62417969 624.24507812 161.06085938 623.56640625 160.48046875 C622 159 622 159 621 157 C617.65277635 156.41423586 615.65184199 156.55492509 612.8203125 158.48828125 C610.76503945 160.25464581 608.80381763 161.97642794 607 164 C607 164.66 607 165.32 607 166 C606.45601562 166.21527344 605.91203125 166.43054688 605.3515625 166.65234375 C602.19070887 168.46379641 599.87236204 170.95496023 597.375 173.5625 C592.23986486 178.88006757 592.23986486 178.88006757 590 180 C590 180.66 590 181.32 590 182 C589.41347656 182.2578125 588.82695313 182.515625 588.22265625 182.78125 C585.82662877 184.09506472 584.31088448 185.5218401 582.4375 187.5 C580.32475777 189.72096733 578.58386374 191.27742417 576 193 C576 193.66 576 194.32 576 195 C574.515 195.495 574.515 195.495 573 196 C573 196.66 573 197.32 573 198 C572.46375 198.226875 571.9275 198.45375 571.375 198.6875 C567.33740278 200.91880373 564.06013268 203.93796744 560.8203125 207.18359375 C557.21923165 210.77968695 553.52054551 214.26474848 549.8125 217.75 C549.05727051 218.4601123 548.30204102 219.17022461 547.52392578 219.90185547 C540.77320546 226.23581106 533.99526535 232.51807305 526.875 238.4375 C525.92625 239.283125 524.9775 240.12875 524 241 C524 241.66 524 242.32 524 243 C522.515 243.495 522.515 243.495 521 244 C521 244.66 521 245.32 521 246 C520.01 245.67 519.02 245.34 518 245 C517.72736328 243.22496094 517.72736328 243.22496094 517.44921875 241.4140625 C514.56315971 223.0390325 509.64060553 206.2107018 497 192 C496.25363281 191.14664063 495.50726563 190.29328125 494.73828125 189.4140625 C490.95016939 185.14382732 487.08930156 180.98444768 483 177 C482.360625 176.3503125 481.72125 175.700625 481.0625 175.03125 C480.36125 174.3196875 479.66 173.608125 478.9375 172.875 C478.28652344 172.21242187 477.63554687 171.54984375 476.96484375 170.8671875 C473.50628467 167.28529627 473.50628467 167.28529627 469 166 C468.67 165.01 468.34 164.02 468 163 C466.32153312 161.32703144 466.32153312 161.32703144 464.25 159.8125 C463.23679687 159.01779297 463.23679687 159.01779297 462.203125 158.20703125 C459.40531737 156.67418984 458.15522323 156.43011387 455 157 C452.5584884 158.55134735 450.41867896 160.06916285 448.1875 161.875 C447.2912793 162.56529297 447.2912793 162.56529297 446.37695312 163.26953125 C444.87166995 164.45655455 443.42977925 165.72303757 442 167 C442 167.66 442 168.32 442 169 C441.12021484 169.40025391 441.12021484 169.40025391 440.22265625 169.80859375 C437.95581619 171.02368377 436.33216818 172.33151806 434.4375 174.0625 C431.19388673 176.96785937 427.88163619 179.75623138 424.5 182.5 C421.18923389 185.18885424 417.93359067 187.9119153 414.75 190.75 C412.26669595 192.96137199 409.74186259 194.93158226 407 196.8125 C406.01 197.534375 405.02 198.25625 404 199 C404 199.66 404 200.32 404 201 C403.46117187 201.22816406 402.92234375 201.45632812 402.3671875 201.69140625 C399.28288791 203.39642335 396.76438978 205.6302321 394.125 207.9375 C389.4277551 211.98473977 384.65112103 215.88989846 379.75 219.6875 C375.06330504 223.32688168 370.56307444 227.08707217 366.16796875 231.078125 C356.23776224 239.88111888 356.23776224 239.88111888 352 242 C351.95512451 241.13834229 351.91024902 240.27668457 351.86401367 239.38891602 C351.68938301 236.15096346 351.50349954 232.91389575 351.31030273 229.67700195 C351.22938455 228.28369697 351.15278133 226.89013369 351.08081055 225.49633789 C350.67214273 217.64146068 350.16340351 210.29359775 347 203 C346.61199219 202.08089844 346.22398437 201.16179687 345.82421875 200.21484375 C343.05404995 194.66498666 339.9443538 189.78542924 336 185 C335.4534375 184.33097656 334.906875 183.66195312 334.34375 182.97265625 C327.88375102 175.32343019 320.14675667 169.1709148 312.25 163.0625 C311.50878906 162.47404297 310.76757812 161.88558594 310.00390625 161.27929688 C309.28589844 160.72435547 308.56789063 160.16941406 307.828125 159.59765625 C307.1877832 159.09758057 306.54744141 158.59750488 305.88769531 158.08227539 C301.43899633 155.53169564 298.77680757 157.55124884 295.25 160.375 Z " fill="#000000" transform="translate(0,0)"/>
<path d="M0 0 C0.625 2.3125 0.625 2.3125 1 5 C0.01 6.485 0.01 6.485 -1 8 C-1 5.69 -1 3.38 -1 1 C-3.72947644 1.30996259 -6.45855985 1.62287975 -9.1875 1.9375 C-9.95642578 2.02451172 -10.72535156 2.11152344 -11.51757812 2.20117188 C-14.64671893 2.56377617 -17.7219945 2.9443989 -20.8125 3.5625 C-23.883756 4.1767512 -26.87858604 4.0612042 -30 4 C-30 3.67 -30 3.34 -30 3 C-6.63531504 -2.01347491 -6.63531504 -2.01347491 0 0 Z " fill="#000000" transform="translate(930,26)"/>
<path d="M0 0 C-1.05058594 0.37511719 -2.10117187 0.75023438 -3.18359375 1.13671875 C-10.22148669 3.69054271 -16.96450234 6.14418913 -23.30078125 10.21484375 C-25 11 -25 11 -28 10 C-25.50252977 8.72398669 -23.00222064 7.45413829 -20.5 6.1875 C-19.80390625 5.83107422 -19.1078125 5.47464844 -18.390625 5.10742188 C-5.03334634 -1.63305671 -5.03334634 -1.63305671 0 0 Z " fill="#000000" transform="translate(900,31)"/>
<path d="M0 0 C0.69222656 0.17144531 1.38445313 0.34289063 2.09765625 0.51953125 C3.9375 1.1875 3.9375 1.1875 5.9375 3.1875 C5.2775 3.0225 4.6175 2.8575 3.9375 2.6875 C0.20650206 2.06566701 -3.28123378 2.12341074 -7.0625 2.1875 C-7.0625 1.5275 -7.0625 0.8675 -7.0625 0.1875 C-3.91424359 -0.8619188 -3.07548497 -0.79905124 0 0 Z " fill="#000000" transform="translate(777.0625,38.8125)"/>
<path d="M0 0 C0 3.48961209 -0.90379374 5.11480295 -2.5 8.1875 C-2.9640625 9.08855469 -3.428125 9.98960938 -3.90625 10.91796875 C-4.2671875 11.60503906 -4.628125 12.29210937 -5 13 C-5.68359375 11.296875 -5.68359375 11.296875 -6 9 C-4.78515625 6.640625 -4.78515625 6.640625 -3.0625 4.25 C-2.49660156 3.45078125 -1.93070313 2.6515625 -1.34765625 1.828125 C-0.90292969 1.22484375 -0.45820312 0.6215625 0 0 Z " fill="#000000" transform="translate(893,64)"/>
<path d="M0 0 C0.66 0.33 1.32 0.66 2 1 C0.62035577 2.51490346 -0.77940317 4.01150613 -2.1875 5.5 C-2.96480469 6.3353125 -3.74210938 7.170625 -4.54296875 8.03125 C-7 10 -7 10 -9.80078125 10.28125 C-10.52652344 10.1884375 -11.25226562 10.095625 -12 10 C-12.33 9.34 -12.66 8.68 -13 8 C-12.26394531 8.0825 -11.52789063 8.165 -10.76953125 8.25 C-7.12505085 7.9210201 -6.13302743 6.65277552 -3.6875 4 C-2.64142578 2.88625 -2.64142578 2.88625 -1.57421875 1.75 C-1.05472656 1.1725 -0.53523437 0.595 0 0 Z " fill="#000000" transform="translate(841,65)"/>
<path d="M0 0 C2.33524782 2.25740623 4.18705073 4.2805761 6 7 C5.67 7.99 5.34 8.98 5 10 C4.16121545 8.71186658 3.32913217 7.41936744 2.5 6.125 C2.0359375 5.40570313 1.571875 4.68640625 1.09375 3.9453125 C0 2 0 2 0 0 Z " fill="#000000" transform="translate(792,70)"/>
<path d="M0 0 C0.66 0 1.32 0 2 0 C2.35791263 21.57111882 1.60439018 43.06546847 0.71142578 64.6159668 C0.665513 65.73830215 0.61960022 66.86063751 0.57229614 68.01698303 C0.48565122 70.12022619 0.39671132 72.22337674 0.30490112 74.32640076 C-1.00195263 85.97701583 -1.00195263 85.97701583 1 97 C1.86221664 97.01030746 2.72443329 97.02061493 3.61277771 97.03123474 C11.72113148 97.12903598 19.82940931 97.23152514 27.93763638 97.33933926 C32.10659016 97.39460636 36.27555091 97.44803226 40.44458008 97.49731445 C44.46463894 97.54490235 48.48460989 97.59724286 52.50456429 97.65294075 C54.04160447 97.67338966 55.57866879 97.69209847 57.11575127 97.70907402 C59.26142006 97.7330622 61.40692129 97.76312383 63.55249023 97.79467773 C64.77604721 97.81022202 65.99960419 97.8257663 67.26023865 97.84178162 C70 98 70 98 71 99 C71.10106874 101.87264056 71.13969672 104.72073628 71.1328125 107.59375 C71.13376923 108.45560913 71.13472595 109.31746826 71.13571167 110.20544434 C71.1363935 112.03133212 71.13453904 113.85722231 71.13037109 115.68310547 C71.12502286 118.48801078 71.13031599 121.29275595 71.13671875 124.09765625 C71.13605797 125.86718786 71.13477681 127.63671936 71.1328125 129.40625 C71.13483673 130.25102905 71.13686096 131.09580811 71.13894653 131.96618652 C71.11495031 137.88504969 71.11495031 137.88504969 70 139 C67.85331715 139.12396871 65.70257613 139.1780072 63.55249023 139.20532227 C62.87934784 139.21522186 62.20620544 139.22512146 61.51266479 139.23532104 C59.27801075 139.26701838 57.04333542 139.29172574 54.80859375 139.31640625 C53.26302016 139.33696869 51.71745228 139.35796496 50.17189026 139.37937927 C46.09649268 139.43467337 42.02104375 139.48405013 37.94555664 139.53222656 C33.7898296 139.58238817 29.63417748 139.63810204 25.47851562 139.69335938 C17.3190737 139.80103064 9.15956924 139.90245552 1 140 C-0.13467456 142.26934911 -0.12435558 143.49115562 -0.12304783 146.00988197 C-0.12503888 146.8533624 -0.12702993 147.69684283 -0.12908131 148.56588328 C-0.12616847 149.49777614 -0.12325563 150.42966899 -0.12025452 151.38980103 C-0.12110894 152.37564599 -0.12196337 153.36149096 -0.12284368 154.37721002 C-0.1244991 157.70152402 -0.11897608 161.02578826 -0.11352539 164.35009766 C-0.11324351 166.72474669 -0.11340128 169.09939581 -0.1139679 171.4740448 C-0.11422588 177.26638889 -0.10987787 183.05871651 -0.10353024 188.85105683 C-0.0963922 195.58928876 -0.09488599 202.32751832 -0.09374207 209.0657535 C-0.09155194 221.08290166 -0.08489291 233.10004303 -0.07543945 245.1171875 C-0.06626433 256.79264288 -0.05918398 268.46809643 -0.05493164 280.14355469 C-0.05466892 280.86289517 -0.05440619 281.58223566 -0.05413551 282.32337435 C-0.0528305 285.93199424 -0.05156678 289.54061414 -0.05032361 293.14923406 C-0.03995221 323.09949412 -0.02226077 353.04974627 0 383 C-2.95458913 380.30732095 -2.95458913 380.30732095 -3.36328697 377.54143238 C-3.35775621 376.55466353 -3.35222546 375.56789469 -3.3465271 374.55122375 C-3.34797541 372.84390674 -3.34797541 372.84390674 -3.34945297 371.10209846 C-3.33516376 369.84677755 -3.32087456 368.59145664 -3.30615234 367.2980957 C-3.30162764 365.95625617 -3.29844072 364.61441157 -3.29648209 363.27256584 C-3.2873055 359.58267634 -3.25942989 355.89312649 -3.22858477 352.20336318 C-3.19870364 348.24103404 -3.18599123 344.27864835 -3.17147827 340.3162384 C-3.14431306 333.46875325 -3.106826 326.62138668 -3.06335449 319.77398682 C-3.00120073 309.8746364 -2.96464601 299.9753042 -2.93496561 290.07580924 C-2.88203678 272.4420998 -2.80625524 254.80860007 -2.71242142 237.17506218 C-2.70247066 235.29973229 -2.69253595 233.42440232 -2.68261719 231.54907227 C-2.67769595 230.61865085 -2.67277471 229.68822943 -2.66770434 228.72961342 C-2.62754682 220.99238119 -2.59653685 213.25512759 -2.56685698 205.51784915 C-2.53721639 197.93424267 -2.50007296 190.35069578 -2.45720994 182.76715261 C-2.4321069 178.2912505 -2.41026497 173.81539056 -2.39665604 169.33943748 C-2.38391426 165.19595462 -2.3619488 161.05262694 -2.33261681 156.90922928 C-2.3235185 155.39260966 -2.31784558 153.8759652 -2.31578636 152.35931969 C-2.31248404 150.29891325 -2.29706967 148.23895125 -2.2784729 146.17863464 C-2.27294214 145.02643023 -2.26741138 143.87422583 -2.26171303 142.68710613 C-2 140 -2 140 0 138 C2.86001587 137.7215271 2.86001587 137.7215271 6.56103516 137.68115234 C7.57096779 137.66608391 7.57096779 137.66608391 8.6013031 137.65071106 C10.83054741 137.61977818 13.05967109 137.60281632 15.2890625 137.5859375 C16.83321172 137.56723393 18.37735065 137.54766113 19.92147827 137.5272522 C23.98862645 137.4758391 28.0558078 137.43626273 32.12310791 137.39910889 C37.0015653 137.3520988 41.87985694 137.29046184 46.75817871 137.23126221 C54.17205257 137.14293808 61.58589288 137.07325431 69 137 C69.33 124.79 69.66 112.58 70 100 C65.13765625 100.03480469 60.2753125 100.06960937 55.265625 100.10546875 C52.18488382 100.12079772 49.10418968 100.13523956 46.0234375 100.14648438 C41.1336897 100.16441663 36.24411046 100.18562856 31.35449219 100.22631836 C27.41227115 100.25891886 23.47023087 100.27685443 19.52788544 100.28463173 C18.02397567 100.29017403 16.52007578 100.30099685 15.01624298 100.31719017 C12.90937434 100.33897434 10.80325224 100.34196662 8.69628906 100.34057617 C7.49715881 100.34723801 6.29802856 100.35389984 5.06256104 100.36076355 C1.71843459 99.96683216 0.31760862 99.4148187 -2 97 C-2.4699707 93.8046875 -2.4699707 93.8046875 -2.42578125 89.875 C-2.42249313 89.17286377 -2.41920502 88.47072754 -2.41581726 87.74731445 C-2.40007302 85.49758563 -2.35611806 83.24934229 -2.3125 81 C-2.30100215 79.5169395 -2.29121891 78.03386466 -2.28320312 76.55078125 C-2.22809663 70.59254006 -2.09217706 64.71064145 -1.50488281 58.7800293 C-0.91789218 52.6311112 -0.7771745 46.5056255 -0.68359375 40.33203125 C-0.66281265 39.17120529 -0.64203156 38.01037933 -0.62062073 36.81437683 C-0.55582394 33.1471382 -0.4965689 29.47983491 -0.4375 25.8125 C-0.39424815 23.30923841 -0.35063186 20.80598308 -0.30664062 18.30273438 C-0.20021539 12.20188902 -0.09832622 6.10098098 0 0 Z " fill="#000000" transform="translate(127,74)"/>
<path d="M0 0 C1.38337193 4.1501158 -0.06680197 7.1633574 -1.3125 11.1875 C-8.14070567 34.52656926 -7.15782986 59.26670292 -7.20060861 83.36504424 C-7.2087068 87.32866498 -7.2223712 91.29226731 -7.23532104 95.25587463 C-7.256952 102.10420712 -7.27514449 108.9525416 -7.29092598 115.80088997 C-7.31374777 125.7021558 -7.34187269 135.60340114 -7.37124526 145.50464945 C-7.41877141 161.57315889 -7.4620756 177.64167678 -7.50268555 193.71020508 C-7.54211708 209.30884456 -7.58356133 224.90747657 -7.62768555 240.50610352 C-7.63040982 241.46942378 -7.63313409 242.43274405 -7.63594092 243.42525584 C-7.64962165 248.25849424 -7.66334168 253.09173252 -7.67708123 257.92497075 C-7.7908104 297.94996491 -7.8976712 337.97497516 -8 378 C-8.33 378 -8.66 378 -9 378 C-9.02291627 336.5041101 -9.04052358 295.00822093 -9.05106533 253.51232595 C-9.05231595 248.607257 -9.05361028 243.70218807 -9.05493164 238.79711914 C-9.05519395 237.82065677 -9.05545626 236.8441944 -9.05572652 235.83814227 C-9.06007133 220.05190081 -9.06795232 204.265663 -9.0771528 188.47942371 C-9.08652244 172.26705394 -9.09206261 156.05468608 -9.09408849 139.84231371 C-9.09545685 129.84796307 -9.09977012 119.85362278 -9.10791647 109.85927533 C-9.11322479 102.99479305 -9.11479504 96.13031608 -9.11350138 89.2658319 C-9.11286436 85.31242357 -9.1138028 81.35903328 -9.11920547 77.4056282 C-9.17020538 38.11564796 -9.17020538 38.11564796 -6.6875 23.1875 C-6.56068848 22.40125244 -6.43387695 21.61500488 -6.30322266 20.80493164 C-5.0722992 13.62748609 -3.27156197 6.54312393 0 0 Z " fill="#000000" transform="translate(886,77)"/>
<path d="M0 0 C2 1 2 1 3.02693582 3.66563201 C5.49341131 12.16394649 6.78556879 20.19158297 7.23382568 29.06646729 C7.309057 30.36313017 7.38428833 31.65979306 7.46179938 32.99574876 C8.21759648 46.63691702 8.28202534 60.27804061 8.25878906 73.93652344 C8.26041286 76.68378011 8.26500606 79.43103026 8.26940918 82.17828369 C8.27817773 88.78299662 8.27643797 95.38766342 8.2705839 101.99237797 C8.26601546 107.37562156 8.2654765 112.75885248 8.26763153 118.14209747 C8.267938 118.91641879 8.26824446 119.69074011 8.26856022 120.4885257 C8.26919985 122.06295282 8.26984828 123.63737993 8.2705054 125.21180704 C8.27617237 139.88411598 8.26970922 154.55639969 8.25890467 169.22870448 C8.24997965 181.73418801 8.25151968 194.23963434 8.26074219 206.74511719 C8.27152213 221.36866497 8.27561598 235.99219077 8.26951766 250.61574197 C8.26888076 252.1847078 8.26825202 253.75367363 8.26763153 255.32263947 C8.26732298 256.09401294 8.26701443 256.86538641 8.26669653 257.66013484 C8.26499202 263.0155934 8.26787591 268.37103748 8.27259064 273.72649384 C8.31690065 329.1026901 8.31690065 329.1026901 7.10839844 349.77441406 C7.0695744 350.46347824 7.03075036 351.15254241 6.99074984 351.86248732 C6.33333314 362.98849048 6.33333314 362.98849048 4 367 C3 364 3 364 4 361 C4.23939284 358.05270869 4.42182591 355.12690079 4.55441284 352.17433167 C4.59654022 351.25101408 4.6386676 350.32769649 4.68207157 349.37639958 C5.18776795 337.03023875 5.14227147 324.67808436 5.13072467 312.32381999 C5.1284269 308.67346386 5.13197156 305.02311216 5.13470459 301.37275696 C5.13911504 294.25214996 5.13820709 287.13155359 5.13529195 280.01094621 C5.13301935 274.21642402 5.13273338 268.42190478 5.13381577 262.62738228 C5.13404561 261.38307326 5.13404561 261.38307326 5.13428011 260.11362668 C5.13459988 258.42763952 5.1349241 256.74165236 5.1352527 255.0556652 C5.1380936 239.304142 5.13484227 223.55262465 5.12945233 207.80110241 C5.12498473 194.32858032 5.12576257 180.85606685 5.13037109 167.38354492 C5.13574007 151.68091028 5.13781991 135.97828075 5.13475883 120.27564532 C5.13444033 118.59669753 5.13412596 116.91774974 5.13381577 115.23880196 C5.13366149 114.41304964 5.13350721 113.58729732 5.13334826 112.73652221 C5.13249013 106.95831332 5.13393072 101.18010772 5.13629532 95.40189934 C5.13911938 88.34691993 5.13830062 81.29195162 5.13301457 74.23697346 C5.13041252 70.64759631 5.12931208 67.05823758 5.13266373 63.46886063 C5.15059309 45.07037664 5.15059309 45.07037664 4.62081909 26.68141174 C4.59098596 25.91253095 4.56115282 25.14365015 4.53041565 24.35146993 C4.19223804 17.92066037 2.72919294 12.0097977 0.83984375 5.87109375 C0 3 0 3 0 0 Z " fill="#000000" transform="translate(799,83)"/>
<path d="M0 0 C8.44037418 -0.06942772 16.8806296 -0.12277414 25.32121849 -0.15543652 C29.24028972 -0.17111071 33.15916599 -0.19238048 37.078125 -0.22631836 C40.85824125 -0.25885001 44.63816967 -0.2768398 48.41841507 -0.28463173 C49.86257511 -0.29018645 51.30672456 -0.30103321 52.7508049 -0.31719017 C54.76915257 -0.33887964 56.78768817 -0.34022467 58.80615234 -0.34057617 C59.95642914 -0.34723801 61.10670593 -0.35389984 62.2918396 -0.36076355 C63.18553253 -0.24171158 64.07922546 -0.12265961 65 0 C67.23077928 3.34616892 67.24524037 4.39593959 67.22705078 8.29760742 C67.22689972 9.37850143 67.22674866 10.45939545 67.22659302 11.57304382 C67.21627045 12.73874405 67.20594788 13.90444427 67.1953125 15.10546875 C67.1924826 16.29981033 67.18965271 17.49415192 67.18673706 18.72468567 C67.17552677 22.54572497 67.15042037 26.36653134 67.125 30.1875 C67.11497131 32.77538724 67.10584527 35.36327816 67.09765625 37.95117188 C67.07558465 44.30086096 67.0420986 50.65041384 67 57 C71.24238589 54.94401288 74.577741 52.86311685 78.125 49.75 C113.47056439 19.5559001 153.21452104 -3.48165259 201 0 C210.37984798 1.37984798 210.37984798 1.37984798 212 3 C213.44534721 15.55348514 213.15468179 28.30885213 213.13037109 40.92236328 C213.12494266 44.2855262 213.13038328 47.64855952 213.13671875 51.01171875 C213.13605905 53.15885446 213.13478014 55.30599009 213.1328125 57.453125 C213.13483673 58.45410217 213.13686096 59.45507935 213.13894653 60.48638916 C213.13421829 61.87999664 213.13421829 61.87999664 213.12939453 63.30175781 C213.12859894 64.11509583 213.12780334 64.92843384 213.12698364 65.76641846 C213.00188904 67.96677264 212.60915738 69.88693927 212 72 C208.11765394 73.04928272 205.23149089 72.92483053 201.390625 72.046875 C193.32357209 70.51226168 185.24566271 70.60470939 177.0625 70.625 C175.82903336 70.62581573 175.82903336 70.62581573 174.57064819 70.62664795 C161.97661726 70.66496821 150.13604205 71.38395482 138 75 C137.2378418 75.21430664 136.47568359 75.42861328 135.69042969 75.64941406 C124.66289186 78.79164487 114.92208605 83.31149634 105 89 C103.47934445 89.7920081 101.95853722 90.58372512 100.4375 91.375 C90.03112935 97.22612916 80.57986819 104.74147519 72 113 C71.30740396 113.47031615 70.61480793 113.94063231 69.90122414 114.42520046 C66.79420155 118.63299489 67.45174454 123.11200056 67.49447632 128.2046051 C67.4883862 129.36155142 67.48229608 130.51849774 67.47602141 131.71050304 C67.46309291 134.9225233 67.46807263 138.13394738 67.48051262 141.34595144 C67.48956155 144.8095363 67.47555191 148.27303532 67.46424866 151.73660278 C67.44773853 157.73833109 67.44561447 163.73992615 67.45301437 169.74167061 C67.46352207 178.42245536 67.45015149 187.10307678 67.43054982 195.78383981 C67.39920249 209.87176288 67.38420354 223.95965148 67.38085938 238.04760742 C67.38065539 238.89090246 67.3804514 239.73419751 67.38024123 240.60304695 C67.38003786 241.4474107 67.37983449 242.29177445 67.37962496 243.16172498 C67.37670436 255.13540976 67.36990049 267.10908392 67.35839844 279.08276367 C67.35759314 279.92533632 67.35678785 280.76790896 67.35595815 281.63601411 C67.34221515 295.67205145 67.320435 309.70806972 67.2945286 323.74408954 C67.2790632 332.40596736 67.27187911 341.06778296 67.27532353 349.72967433 C67.2773599 355.66099574 67.27272009 361.59228619 67.26278017 367.52359957 C67.2573341 370.94875155 67.25529537 374.3738234 67.26195335 377.79897499 C67.26755849 381.50685182 67.26108816 385.21451444 67.2515564 388.92237854 C67.25621961 390.0120499 67.26088282 391.10172127 67.26568735 392.22441298 C67.2581893 393.70837392 67.2581893 393.70837392 67.25053978 395.22231388 C67.25042975 396.07869326 67.25031972 396.93507263 67.25020635 397.8174029 C67 400 67 400 65 403 C62.29856873 403.36749268 62.29856873 403.36749268 58.82202148 403.35644531 C56.8750663 403.36094696 56.8750663 403.36094696 54.88877869 403.36553955 C53.46621303 403.35353472 52.04365133 403.34105178 50.62109375 403.328125 C49.16903376 403.32506836 47.71697085 403.32319152 46.26490784 403.32244873 C43.22084343 403.31784293 40.17704317 403.30340562 37.13305664 403.28125 C33.22311596 403.25294218 29.3133833 403.2420364 25.40334988 403.2375679 C22.40515546 403.23341955 19.40700346 403.2236074 16.40883064 403.21169281 C14.96666874 403.2059796 13.52450273 403.20122439 12.08233452 403.19742584 C10.0710596 403.19058269 8.05981518 403.17605614 6.04858398 403.16113281 C4.90211899 403.15430481 3.75565399 403.14747681 2.57444763 403.14044189 C0 403 0 403 -1 402 C-1.09888955 399.88042113 -1.12555729 397.75747501 -1.12584114 395.63559055 C-1.12729458 394.95968643 -1.12874802 394.2837823 -1.13024551 393.58739623 C-1.13393124 391.29412786 -1.13040727 389.00092489 -1.12698364 386.70765686 C-1.12813445 385.05829869 -1.1297217 383.40894078 -1.13171089 381.75958341 C-1.13590982 377.20506758 -1.13381099 372.65057252 -1.13072467 368.09605658 C-1.12847305 363.19278482 -1.131949 358.28951677 -1.13470459 353.38624573 C-1.13916395 343.77168528 -1.13818506 334.15713261 -1.13529195 324.54257185 C-1.13303843 316.7317796 -1.13272517 308.92098955 -1.13381577 301.11019707 C-1.133969 300.00076551 -1.13412223 298.89133395 -1.13428011 297.74828325 C-1.13459982 295.49485624 -1.13492403 293.24142924 -1.1352527 290.98800223 C-1.13810801 269.83010052 -1.13481974 248.67220313 -1.12945233 227.51430213 C-1.12498486 209.34099417 -1.12575966 191.1676926 -1.13037109 172.99438477 C-1.13571702 151.91648501 -1.13783266 130.83858906 -1.13475883 109.76068872 C-1.13444026 107.51499871 -1.13412589 105.26930871 -1.13381577 103.0236187 C-1.13358435 101.36601716 -1.13358435 101.36601716 -1.13334826 99.67492871 C-1.13248312 91.86970622 -1.13394595 84.06448612 -1.13629532 76.25926399 C-1.13909375 66.75269728 -1.13835417 57.24613883 -1.13301457 47.73957307 C-1.13037805 42.88474992 -1.12937168 38.02994056 -1.13266373 33.17511749 C-1.13562772 28.73711213 -1.13403213 24.29913345 -1.12868617 19.86113053 C-1.12756242 18.24942647 -1.12815225 16.6377202 -1.13056196 15.02601755 C-1.13357123 12.84739581 -1.13051591 10.66886733 -1.12584114 8.49025059 C-1.12567879 7.27644704 -1.12551644 6.0626435 -1.12534916 4.81205803 C-1 2 -1 2 0 0 Z M0 3 C-0.09886932 5.10488036 -0.12555725 7.21314957 -0.12584114 9.32035065 C-0.12729458 9.99148925 -0.12874802 10.66262785 -0.13024551 11.35410398 C-0.13393117 13.63115162 -0.1304073 15.90813338 -0.12698364 18.18518066 C-0.12813445 19.82287713 -0.1297217 21.46057333 -0.13171089 23.09826899 C-0.13590977 27.62051077 -0.13381102 32.14273161 -0.13072467 36.6649735 C-0.12847305 41.53346099 -0.13194899 46.40194475 -0.13470459 51.27043152 C-0.13916384 60.81647659 -0.13818513 70.36251382 -0.13529195 79.9085592 C-0.13303852 87.66310527 -0.13272513 95.41764913 -0.13381577 103.17219543 C-0.133969 104.27358963 -0.13412223 105.37498383 -0.13428011 106.50975361 C-0.13459982 108.74683535 -0.13492403 110.98391709 -0.1352527 113.22099882 C-0.13810795 134.22483381 -0.13481977 155.22866444 -0.12945233 176.23249871 C-0.12498425 194.27593231 -0.12576017 212.31935948 -0.13037109 230.36279297 C-0.13571607 251.28869594 -0.13783325 272.21459508 -0.13475883 293.14049864 C-0.13444026 295.36960061 -0.13412589 297.59870259 -0.13381577 299.82780457 C-0.13366149 300.92472064 -0.13350721 302.02163672 -0.13334826 303.15179268 C-0.13248288 310.90188066 -0.13394645 318.65196622 -0.13629532 326.40205383 C-0.13909267 335.83984529 -0.13835644 345.27762843 -0.13301457 354.71541893 C-0.13037668 359.53568869 -0.12937398 364.35594455 -0.13266373 369.17621422 C-0.13562489 373.58147653 -0.13403692 377.98671193 -0.12868617 382.39197177 C-0.12756121 383.99289094 -0.1281549 385.59381235 -0.13056196 387.1947301 C-0.13356496 389.35640303 -0.13052252 391.51798152 -0.12584114 393.67964935 C-0.12567879 394.88471933 -0.12551644 396.0897893 -0.12534916 397.33137655 C-0.30378795 399.92059563 -0.30378795 399.92059563 1 401 C2.96369153 401.0940067 4.93079199 401.11743381 6.89672852 401.11352539 C8.78857628 401.11341209 8.78857628 401.11341209 10.71864319 401.11329651 C12.10539794 401.1081891 13.49215229 401.10297309 14.87890625 401.09765625 C16.28995209 401.09579201 17.70099857 401.09436814 19.11204529 401.09336853 C22.83240535 401.08954379 26.5527266 401.0797139 30.27307129 401.06866455 C34.06680781 401.05844948 37.86055058 401.05387071 41.65429688 401.04882812 C49.10288231 401.03809158 56.55143572 401.0210157 64 401 C65.78234493 397.92578875 66.24878008 395.71611155 66.24330235 392.17735291 C66.24666774 391.20347154 66.25003314 390.22959017 66.25350052 389.22619724 C66.24373882 387.62524157 66.24373882 387.62524157 66.23377991 385.99194336 C66.23478319 384.85612037 66.23578647 383.72029737 66.23682016 382.5500555 C66.2377756 378.72991591 66.22441011 374.90995864 66.21118164 371.08984375 C66.20786253 368.3568624 66.20757922 365.62388279 66.2071991 362.89089966 C66.20483607 356.99886961 66.1952548 351.10688678 66.18089485 345.21487427 C66.16022054 336.6916456 66.15153418 328.16843718 66.1459735 319.64518678 C66.13671539 305.81129588 66.11925589 291.97742864 66.09594727 278.14355469 C66.09455395 277.31547503 66.09316064 276.48739537 66.0917251 275.63422239 C66.09032957 274.80509985 66.08893404 273.97597731 66.08749622 273.12172985 C66.06772853 261.36663743 66.04989878 249.61154421 66.03442383 237.85644531 C66.03333298 237.02937305 66.03224213 236.20230078 66.03111822 235.35016572 C66.01310588 221.56839153 65.99913996 207.78661493 65.98725218 194.00483418 C65.97965501 185.50111681 65.96789863 176.997423 65.95079052 168.49371934 C65.93923577 162.66939879 65.93104849 156.84508014 65.92552502 151.02075076 C65.92218855 147.65826848 65.91659059 144.29582827 65.90771103 140.93335342 C65.89830318 137.29157662 65.8949887 133.64984396 65.89320374 130.00805664 C65.88678811 128.40710097 65.88678811 128.40710097 65.88024288 126.77380276 C65.88100053 125.79992139 65.88175819 124.82604002 65.8825388 123.82264709 C65.88107493 122.98183625 65.87961106 122.14102541 65.87810284 121.27473545 C66.04850011 118.0949345 66.28564093 115.78503095 68.4609375 113.39453125 C69.09257813 112.87246094 69.72421875 112.35039062 70.375 111.8125 C71.10332031 111.20664063 71.83164063 110.60078125 72.58203125 109.9765625 C73.77892578 108.99816406 73.77892578 108.99816406 75 108 C75.80824219 107.30648437 76.61648438 106.61296875 77.44921875 105.8984375 C89.58838555 95.62823061 102.59970501 87.66120269 117 81 C117.99257812 80.52820313 118.98515625 80.05640625 120.0078125 79.5703125 C128.95322961 75.55857948 138.47410027 73.21456065 148 71 C148.7024585 70.81679199 149.40491699 70.63358398 150.12866211 70.44482422 C154.4689561 69.77243108 158.77861334 69.85780242 163.1640625 69.8671875 C164.15191742 69.86623077 165.13977234 69.86527405 166.15756226 69.86428833 C168.247132 69.8636087 170.33670386 69.86544785 172.42626953 69.86962891 C175.59282299 69.87494597 178.75923239 69.86969426 181.92578125 69.86328125 C183.96354198 69.86394274 186.00130261 69.86522535 188.0390625 69.8671875 C189.43966415 69.86415115 189.43966415 69.86415115 190.86856079 69.86105347 C197.29232209 69.88345287 203.61274209 70.32337757 210 71 C211.37942835 68.2411433 211.12721397 66.01714365 211.12939453 62.9296875 C211.13412277 61.01760498 211.13412277 61.01760498 211.13894653 59.06689453 C211.1371567 57.669596 211.13510573 56.27229779 211.1328125 54.875 C211.13348585 53.44775374 211.13445615 52.02050759 211.13571167 50.59326172 C211.13718715 47.60057484 211.13503888 44.60791779 211.13037109 41.61523438 C211.12467388 37.77490871 211.12795369 33.93465293 211.13394356 30.09432983 C211.13755319 27.14672314 211.13640873 24.19913307 211.13381577 21.25152588 C211.13314761 19.83530672 211.13397104 18.41908606 211.13629532 17.00286865 C211.13882837 15.02535022 211.13428457 13.04782651 211.12939453 11.0703125 C211.12859894 9.94383301 211.12780334 8.81735352 211.12698364 7.65673828 C211.18045513 5.02424226 211.18045513 5.02424226 210 3 C169.28279146 -3.56324614 134.19425155 10.41270945 101.51953125 33.41796875 C91.04641636 41.01957029 80.87379418 49.08202379 71.06640625 57.5234375 C69 59 69 59 66 59 C66.00444122 58.31539703 66.00888245 57.63079407 66.01345825 56.92544556 C66.05759497 49.82076091 66.0878261 42.716115 66.10986328 35.61132812 C66.11994089 32.95734069 66.13360313 30.3033644 66.15087891 27.64941406 C66.17504992 23.84176893 66.18646535 20.03427016 66.1953125 16.2265625 C66.20563507 15.03382721 66.21595764 13.84109192 66.22659302 12.61221313 C66.22674408 11.51122284 66.22689514 10.41023254 66.22705078 9.27587891 C66.231492 8.30325104 66.23593323 7.33062317 66.24050903 6.32852173 C66.22744595 3.80696897 66.22744595 3.80696897 64 2 C61.25500829 1.69955789 61.25500829 1.69955789 58.00561523 1.75708008 C56.74768661 1.75400345 55.489758 1.75092682 54.19371033 1.74775696 C52.81533628 1.75465418 51.43696404 1.76192111 50.05859375 1.76953125 C48.6513727 1.77072296 47.24415085 1.77117623 45.83692932 1.7709198 C42.88708521 1.77248487 39.93736242 1.78077701 36.98754883 1.79418945 C33.19868171 1.81119496 29.40994783 1.81500337 25.62104702 1.81424427 C22.71550719 1.81451563 19.80999672 1.81999107 16.90446663 1.82724571 C15.50696091 1.83043666 14.10945184 1.83240078 12.71194267 1.83313942 C10.76294643 1.83529758 8.81396248 1.84482687 6.86499023 1.85473633 C5.19858742 1.86045403 5.19858742 1.86045403 3.4985199 1.86628723 C1.0595093 1.71772125 1.0595093 1.71772125 0 3 Z " fill="#000000" transform="translate(1007,139)"/>
<path d="M0 0 C3.86187553 0.62252772 5.87980407 2.84327835 8.55078125 5.50390625 C9.61134993 6.51888708 10.67254866 7.53320995 11.734375 8.546875 C12.24726074 9.04364746 12.76014648 9.54041992 13.28857422 10.05224609 C15.18067446 11.86532295 17.13541098 13.5976789 19.11328125 15.31640625 C20.03753906 16.12271484 20.03753906 16.12271484 20.98046875 16.9453125 C22.70775332 18.41542359 24.46923934 19.83455867 26.23828125 21.25390625 C27.06328125 21.97578125 27.88828125 22.69765625 28.73828125 23.44140625 C28.73828125 24.10140625 28.73828125 24.76140625 28.73828125 25.44140625 C25.29049039 23.94134234 22.91467592 21.93731363 20.17578125 19.37890625 C16.47664758 16.00262596 12.75227958 12.67324605 8.92578125 9.44140625 C8.05308594 8.69890625 7.18039062 7.95640625 6.28125 7.19140625 C3.51744972 5.28943616 2.09932628 4.40554144 -1.26171875 4.44140625 C-3.54646602 5.84627652 -5.4187291 7.17470048 -7.44921875 8.87890625 C-13.05573807 13.44140625 -13.05573807 13.44140625 -15.26171875 13.44140625 C-15.26171875 14.10140625 -15.26171875 14.76140625 -15.26171875 15.44140625 C-16.91171875 16.10140625 -18.56171875 16.76140625 -20.26171875 17.44140625 C-16.13145403 12.22422976 -11.70204767 8.20372052 -6.43359375 4.140625 C-1.52049878 0.29674674 -1.52049878 0.29674674 0 0 Z " fill="#000000" transform="translate(457.26171875,157.55859375)"/>
<path d="M0 0 C4.15323721 1.72148673 6.76121962 4.76564954 9.8203125 7.9921875 C10.44035156 8.63027344 11.06039062 9.26835937 11.69921875 9.92578125 C12.85379021 11.115114 14.00419221 12.30851953 15.14892578 13.50732422 C16.64476933 15.06456962 18.16333591 16.59555821 19.6953125 18.1171875 C16.6953125 18.1171875 16.6953125 18.1171875 15.07299805 16.81616211 C14.498479 16.22327393 13.92395996 15.63038574 13.33203125 15.01953125 C12.69201172 14.38337891 12.05199219 13.74722656 11.39257812 13.09179688 C10.05653894 11.73758029 8.72832353 10.37559854 7.40820312 9.00585938 C3.60300113 5.0646031 3.60300113 5.0646031 -1.5625 4.01171875 C-4.17145069 5.06347522 -5.82776687 5.96045207 -7.8671875 7.8671875 C-8.73730469 8.66769531 -8.73730469 8.66769531 -9.625 9.484375 C-10.17929687 10.02320313 -10.73359375 10.56203125 -11.3046875 11.1171875 C-11.81773437 11.61476562 -12.33078125 12.11234375 -12.859375 12.625 C-14.02220238 13.77468808 -15.16579581 14.94378394 -16.3046875 16.1171875 C-16.9646875 15.7871875 -17.6246875 15.4571875 -18.3046875 15.1171875 C-16.39111977 13.17654098 -14.47400812 11.2396305 -12.5546875 9.3046875 C-12.01585937 8.75748047 -11.47703125 8.21027344 -10.921875 7.64648438 C-3.49854704 0.17789222 -3.49854704 0.17789222 0 0 Z " fill="#000000" transform="translate(618.3046875,157.8828125)"/>
<path d="M0 0 C0.66 0.33 1.32 0.66 2 1 C-2.29 5.29 -6.58 9.58 -11 14 C-11 11 -11 11 -8.59375 8.30078125 C-7.5700032 7.29697757 -6.5383946 6.30114351 -5.5 5.3125 C-4.97535156 4.80138672 -4.45070313 4.29027344 -3.91015625 3.76367188 C-2.61339096 2.50227292 -1.30753883 1.25022788 0 0 Z " fill="#000000" transform="translate(713,195)"/>
<path d="M0 0 C2.85151315 2.85151315 2.93420148 5.55370604 3.11352539 9.49536133 C3.10828857 10.3489624 3.10305176 11.20256348 3.09765625 12.08203125 C3.09282227 13.47905273 3.09282227 13.47905273 3.08789062 14.90429688 C3.07951172 15.86400391 3.07113281 16.82371094 3.0625 17.8125 C3.05798828 18.79154297 3.05347656 19.77058594 3.04882812 20.77929688 C3.03708684 23.18626111 3.02066419 25.59309857 3 28 C2.67 28 2.34 28 2 28 C1.97494385 27.43603516 1.9498877 26.87207031 1.92407227 26.29101562 C1.80681699 23.69385118 1.68468734 21.0969369 1.5625 18.5 C1.50352539 17.1696875 1.50352539 17.1696875 1.44335938 15.8125 C1.18915913 10.49384873 0.73323663 5.2743744 0 0 Z " fill="#000000" transform="translate(346,207)"/>
<path d="M0 0 C4.37823917 -0.04938149 8.75633146 -0.0857104 13.13476562 -0.10986328 C14.6247032 -0.11993043 16.11462097 -0.13358518 17.60449219 -0.15087891 C19.74419028 -0.17509653 21.88362753 -0.18647564 24.0234375 -0.1953125 C25.31169434 -0.20578613 26.59995117 -0.21625977 27.92724609 -0.22705078 C31 0 31 0 33 2 C33.26171303 4.80048943 33.26171303 4.80048943 33.2784729 8.45211792 C33.2871615 9.45788649 33.2871615 9.45788649 33.29602563 10.48397362 C33.31310091 12.74310724 33.31590903 15.00203741 33.31884766 17.26123047 C33.32814381 18.87797549 33.33831201 20.49471571 33.34928894 22.1114502 C33.37671909 26.52268889 33.39179001 30.93389534 33.40471697 35.3451972 C33.42038183 39.99157153 33.44718845 44.63788168 33.4727478 49.28421021 C33.51968289 58.13063958 33.55631466 66.97708156 33.58942068 75.82357228 C33.62708434 85.74285896 33.67685686 95.66207253 33.72740483 105.5813005 C33.86890451 133.5564798 34.00672296 161.53185256 34.02694011 189.50743127 C34.02816289 191.0443585 34.02986938 192.58128544 34.03211713 194.11821151 C34.07785057 228.15667323 34.07785057 228.15667323 30 240 C29.01 240.99 29.01 240.99 28 242 C28.21242718 240.74245502 28.42485435 239.48491003 28.64371872 238.18925762 C30.77158264 224.95156176 31.42161876 212.11656006 31.35644531 198.7277832 C31.35723869 196.59002601 31.35934358 194.45226896 31.36264038 192.31451416 C31.36771367 186.58226421 31.35436863 180.85019798 31.33711338 175.11797738 C31.32194598 169.09852856 31.32324858 163.07908082 31.32244873 157.05961609 C31.31877445 146.97745673 31.30388919 136.89536622 31.28125 126.81323242 C31.25222543 113.86083536 31.24200986 100.90849314 31.2375679 87.95606709 C31.23359621 76.80555733 31.22110653 65.65505953 31.20722103 54.50455832 C31.20312076 50.92207412 31.20019618 47.33959033 31.19742584 43.75710487 C31.19254615 38.14844241 31.1823655 32.53981351 31.16798782 26.9311676 C31.16345446 24.86953217 31.16062372 22.80789221 31.15958023 20.74625206 C31.15784244 17.94325286 31.14998117 15.14033846 31.14044189 12.33735657 C31.14130838 11.51317098 31.14217486 10.6889854 31.1430676 9.8398245 C31.21820325 5.78882239 31.21820325 5.78882239 30 2 C15.15 1.505 15.15 1.505 0 1 C0 0.67 0 0.34 0 0 Z " fill="#000000" transform="translate(20,212)"/>
<path d="M0 0 C0.66 0.33 1.32 0.66 2 1 C2 3.66666667 2 6.33333333 2 9 C0.4375 7.3125 0.4375 7.3125 -1 5 C-0.6875 2.25 -0.6875 2.25 0 0 Z " fill="#000000" transform="translate(229,218)"/>
<path d="M0 0 C0.66 0.33 1.32 0.66 2 1 C-0.31 3.31 -2.62 5.62 -5 8 C-5.66 7.67 -6.32 7.34 -7 7 C-4.69 4.69 -2.38 2.38 0 0 Z " fill="#000000" transform="translate(567,220)"/>
<path d="M0 0 C0.33 0 0.66 0 1 0 C3.29612756 9.41002278 3.29612756 9.41002278 3 14 C-0.2102122 10.7897878 0.01025241 7.62539686 -0.0625 3.1875 C-0.041875 2.135625 -0.02125 1.08375 0 0 Z " fill="#000000" transform="translate(512,225)"/>
<path d="M0 0 C2.72647685 2.35468455 3.98756342 4.5408417 5 8 C4.546875 10.16015625 4.546875 10.16015625 4 12 C3.3291288 10.3767313 2.66342971 8.75132422 2 7.125 C1.62875 6.22007812 1.2575 5.31515625 0.875 4.3828125 C0 2 0 2 0 0 Z " fill="#000000" transform="translate(270,227)"/>
<path d="M0 0 C0.66 0.33 1.32 0.66 2 1 C-0.97 3.97 -3.94 6.94 -7 10 C-7.66 9.67 -8.32 9.34 -9 9 C-6.03 6.03 -3.06 3.06 0 0 Z " fill="#000000" transform="translate(552,234)"/>
<path d="M0 0 C0.33 0 0.66 0 1 0 C1 2.97 1 5.94 1 9 C2.98 9.495 2.98 9.495 5 10 C3.0625 10.5625 3.0625 10.5625 1 11 C0 10 0 10 -0.09765625 7.71484375 C-0.08605469 6.79832031 -0.07445312 5.88179687 -0.0625 4.9375 C-0.05347656 4.01839844 -0.04445313 3.09929687 -0.03515625 2.15234375 C-0.02355469 1.44207031 -0.01195312 0.73179687 0 0 Z " fill="#000000" transform="translate(349,235)"/>
<path d="M0 0 C0.33 0 0.66 0 1 0 C1 71.28 1 142.56 1 216 C-4.66604623 207.50093065 -2.14870972 190.98750751 -2.14526367 180.86572266 C-2.1482631 179.08668447 -2.15166741 177.30764694 -2.15544128 175.52861023 C-2.16420375 170.73719194 -2.16661604 165.94579155 -2.16725707 161.15436602 C-2.16797177 158.15138473 -2.17011392 155.14840788 -2.17275429 152.1454277 C-2.18198064 141.64252182 -2.18609241 131.13962855 -2.18530273 120.63671875 C-2.18470203 110.8880669 -2.19525939 101.1394704 -2.2110464 91.39083254 C-2.22417002 82.98357309 -2.22948465 74.57633162 -2.22884732 66.16906202 C-2.22859384 61.16422851 -2.23136198 56.15944431 -2.24202538 51.15462112 C-2.25178852 46.4447433 -2.25172994 41.73496115 -2.24450874 37.02507973 C-2.24347318 35.30957586 -2.24576363 33.59406577 -2.2518692 31.87857246 C-2.28773608 21.09147205 -1.60424008 10.6711352 0 0 Z " fill="#000000" transform="translate(684,243)"/>
<path d="M0 0 C2.88760134 2.45058148 2.98643919 2.85505778 3.36914349 6.94552135 C3.38180033 8.64846587 3.3776298 10.35158111 3.36076355 12.05448914 C3.36332682 12.9921859 3.3658901 13.92988267 3.36853105 14.89599448 C3.37348932 18.05152241 3.35694222 21.20657639 3.34057617 24.36206055 C3.33973034 26.61863188 3.34020418 28.87520405 3.34190369 31.1317749 C3.34276678 37.26990309 3.32509011 43.40785651 3.30418181 49.54594398 C3.28546737 55.95614223 3.28366871 62.36634419 3.28010559 68.77656555 C3.27183138 79.53963836 3.25307445 90.30263452 3.22631836 101.06567383 C3.19878659 112.15225909 3.17754871 123.23882691 3.16479492 134.32543945 C3.16400675 135.00867327 3.16321858 135.69190709 3.16240653 136.39584496 C3.15849145 139.82338526 3.15470032 143.25092569 3.15097082 146.6784662 C3.1198643 175.11902175 3.06679643 203.55950743 3 232 C2.67 232 2.34 232 2 232 C0.61465273 221.19964763 0.82507742 210.33067557 0.79467773 199.46411133 C0.78508663 197.28517476 0.77507585 195.10624 0.76467896 192.92730713 C0.73775728 187.03766215 0.71667913 181.14800926 0.69667697 175.25833726 C0.67473841 169.09373441 0.64738839 162.92915558 0.62062073 156.76457214 C0.57079989 145.10247362 0.5258219 133.44036168 0.48259836 121.77823704 C0.43313506 108.49647719 0.37825078 95.21474255 0.32291877 81.93300593 C0.20926168 54.62202647 0.10238749 27.31102387 0 0 Z " fill="#000000" transform="translate(609,246)"/>
<path d="M0 0 C3.87249833 3.87249833 3.11497676 10.1161745 3.12908131 15.34757704 C3.12616847 16.13650439 3.12325563 16.92543175 3.12025452 17.73826599 C3.12153615 19.02130579 3.12153615 19.02130579 3.12284368 20.33026558 C3.12448466 23.18300792 3.11899982 26.03569085 3.11352539 28.88842773 C3.11324319 30.93869526 3.11340189 32.98896288 3.1139679 35.03923035 C3.1142546 40.59649871 3.10837827 46.15374545 3.10139394 51.71100879 C3.09513939 57.52194277 3.09455494 63.33287726 3.09336853 69.14381409 C3.09026142 80.14378519 3.08205637 91.14374634 3.07201904 102.14371306 C3.06083867 114.66842415 3.0553426 127.19313572 3.05032361 139.71785057 C3.03987325 165.47857256 3.0222858 191.23928572 3 217 C2.67 217 2.34 217 2 217 C1.99576806 215.94239534 1.99153612 214.88479069 1.98717594 213.79513741 C1.88392583 188.04665854 1.77517016 162.2982074 1.66066074 136.54977608 C1.60541171 124.09797207 1.55194353 111.6461652 1.50268555 99.19433594 C1.45974164 88.33977553 1.4134382 77.4852355 1.36312145 66.63070667 C1.33660259 60.88476326 1.31175189 55.13882369 1.29092598 49.3928566 C1.27125648 43.98060521 1.24708271 38.56839232 1.21950912 33.15617561 C1.21019305 31.17371258 1.20249856 29.19124112 1.19658089 27.20876503 C1.1882264 24.49282355 1.17392519 21.77697322 1.15821838 19.06106567 C1.15724028 18.28476779 1.15626217 17.50846991 1.15525442 16.70864785 C1.11377839 11.09481019 0.63608911 5.57638707 0 0 Z " fill="#000000" transform="translate(276,247)"/>
<path d="M0 0 C0.33 0 0.66 0 1 0 C3.47274466 20.57603788 3.29652358 41.12658878 3.26865101 61.81536317 C3.26352417 66.82048898 3.26829922 71.82560809 3.27142334 76.83073425 C3.2750367 85.20609887 3.27032621 93.58142791 3.26074219 101.95678711 C3.24978773 111.64172257 3.253444 121.32657426 3.264395 131.01150781 C3.27345435 139.3584378 3.27476205 147.70534253 3.26951766 156.05227584 C3.26640007 161.02522421 3.26598438 165.99813304 3.27259064 170.97107887 C3.27834631 175.62605001 3.2744002 180.28091186 3.26280212 184.93587112 C3.26014917 186.64597199 3.26093139 188.356082 3.26532745 190.06617928 C3.27075754 192.3918458 3.26398098 194.71715728 3.25396729 197.0428009 C3.25321323 198.34584073 3.25245918 199.64888056 3.25168228 200.99140644 C3 204 3 204 1 206 C0.67 138.02 0.34 70.04 0 0 Z " fill="#000000" transform="translate(442,258)"/>
<path d="M0 0 C0.66 0.33 1.32 0.66 2 1 C-0.31 3.64 -2.62 6.28 -5 9 C-5.33 8.01 -5.66 7.02 -6 6 C-4.02 4.02 -2.04 2.04 0 0 Z " fill="#000000" transform="translate(522,262)"/>
<path d="M0 0 C0.33 0 0.66 0 1 0 C1.1304748 26.02494925 1.26086424 52.04989893 1.39115143 78.07484913 C1.45164487 90.15805392 1.51216649 102.24125857 1.57275391 114.32446289 C1.62554765 124.85335614 1.67828907 135.38224965 1.73096704 145.91114348 C1.75887411 151.4886376 1.78680779 157.06613159 1.81480408 162.64362526 C1.84113353 167.8892126 1.86739323 173.13480029 1.89359856 178.38038826 C1.90324755 180.30935936 1.91292241 182.23833034 1.92262459 184.16730118 C1.93583076 186.79368812 1.94894528 189.4200755 1.96203613 192.04646301 C1.96592708 192.81591415 1.96981803 193.58536528 1.97382689 194.37813312 C1.98807471 197.25212871 2 200.12596346 2 203 C-0.5234257 200.4765743 -0.23869826 198.92287749 -0.25816262 195.48104131 C-0.25233693 194.70478639 -0.24651125 193.92853146 -0.24050903 193.12875366 C-0.24221788 192.30625079 -0.24392673 191.48374791 -0.24568737 190.63632071 C-0.2489964 187.86471919 -0.23795544 185.09335677 -0.22705078 182.32177734 C-0.22648697 180.34121201 -0.22680263 178.36064626 -0.22793579 176.38008118 C-0.22851149 170.98983932 -0.21672216 165.59968581 -0.20278788 160.20946455 C-0.19031657 154.5813488 -0.18911287 148.9532312 -0.18673706 143.32510376 C-0.18051168 132.661403 -0.16408658 121.99774306 -0.14403808 111.33406031 C-0.12171195 99.19640292 -0.11069393 87.05874362 -0.10064721 74.92107081 C-0.07972125 49.94735788 -0.04452477 24.97368122 0 0 Z " fill="#000000" transform="translate(349,264)"/>
<path d="M0 0 C0.33 0 0.66 0 1 0 C1.33 64.02 1.66 128.04 2 194 C-0.47957847 191.52042153 -0.23813778 190.09988957 -0.25816262 186.71659935 C-0.24942409 185.60474476 -0.24942409 185.60474476 -0.24050903 184.47042847 C-0.24221788 183.68467756 -0.24392673 182.89892666 -0.24568737 182.08936512 C-0.24899587 179.44213529 -0.23795633 176.79515591 -0.22705078 174.14794922 C-0.22648696 172.25605271 -0.22680266 170.36415577 -0.22793579 168.47225952 C-0.22851144 163.32374378 -0.21672284 158.17532055 -0.20278788 153.02682638 C-0.19031583 147.65095579 -0.18911281 142.27508326 -0.18673706 136.89920044 C-0.18051189 126.71361431 -0.16408709 116.52807094 -0.14403808 106.34250367 C-0.12171127 94.74897163 -0.11069376 83.15543758 -0.10064721 71.56188941 C-0.07972174 47.70790254 -0.04452568 23.85395366 0 0 Z " fill="#000000" transform="translate(515,271)"/>
<path d="M0 0 C0.33 0 0.66 0 1 0 C2.09845718 4.32059823 3.17812739 8.61667943 4 13 C0.41762545 8.32733754 -0.11073636 5.97976363 0 0 Z " fill="#000000" transform="translate(685,459)"/>
<path d="M0 0 C0.99 0.66 1.98 1.32 3 2 C3.4375 4.375 3.4375 4.375 3 7 C1 9.3125 1 9.3125 -1 11 C-1.66 10.67 -2.32 10.34 -3 10 C-2.319375 9.46375 -1.63875 8.9275 -0.9375 8.375 C1.38259327 6.08837848 1.38259327 6.08837848 0.75 2.75 C0.5025 1.8425 0.255 0.935 0 0 Z " fill="#000000" transform="translate(730,473)"/>
<path d="M0 0 C3.29107425 1.49800621 5.94688743 3.43179101 8.8125 5.625 C13.21506475 8.77527966 15.6660225 9.81169223 21 9 C20.01 10.485 20.01 10.485 19 12 C13.71862557 11.54866815 10.83729007 9.79241132 6.6875 6.5625 C6.15060547 6.15451172 5.61371094 5.74652344 5.06054688 5.32617188 C1.15266091 2.30532181 1.15266091 2.30532181 0 0 Z " fill="#000000" transform="translate(903,475)"/>
<path d="M0 0 C2.2227858 3.96926035 4.47813386 8.63843451 3.55078125 13.21875 C3.36902344 13.8065625 3.18726563 14.394375 3 15 C2.491217 13.44033782 1.99336531 11.87710759 1.5 10.3125 C1.2215625 9.44238281 0.943125 8.57226562 0.65625 7.67578125 C0.00149195 5.00608323 -0.11831495 2.73603316 0 0 Z " fill="#000000" transform="translate(612,479)"/>
<path d="M0 0 C5.69324997 0.62412633 10.8291832 2.05325009 16.25 3.875 C17.45269531 4.25978516 17.45269531 4.25978516 18.6796875 4.65234375 C19.45054687 4.90886719 20.22140625 5.16539062 21.015625 5.4296875 C21.70946289 5.65897949 22.40330078 5.88827148 23.11816406 6.12451172 C25.22341096 7.10393769 26.46345181 8.27813043 28 10 C24.35204526 9.3490961 20.97430919 8.38201944 17.48046875 7.15234375 C16.45888672 6.79462891 15.43730469 6.43691406 14.38476562 6.06835938 C13.32966797 5.69517578 12.27457031 5.32199219 11.1875 4.9375 C9.57584961 4.37192383 9.57584961 4.37192383 7.93164062 3.79492188 C5.28669882 2.86625342 2.64287946 1.93451811 0 1 C0 0.67 0 0.34 0 0 Z " fill="#000000" transform="translate(783,487)"/>
<path d="M0 0 C3.2826932 1.49076434 5.93077441 3.38620321 8.75 5.625 C9.94882812 6.57246094 9.94882812 6.57246094 11.171875 7.5390625 C11.77515625 8.02117187 12.3784375 8.50328125 13 9 C9.02348017 9 7.85083826 7.55718178 4.8125 5.0625 C3.91144531 4.33160156 3.01039063 3.60070312 2.08203125 2.84765625 C1.39496094 2.23792969 0.70789063 1.62820313 0 1 C0 0.67 0 0.34 0 0 Z " fill="#000000" transform="translate(426,500)"/>
<path d="M0 0 C4.3573226 1.47130373 7.71934134 3.83080615 11.3125 6.625 C11.86228516 7.04523438 12.41207031 7.46546875 12.97851562 7.8984375 C14.32292168 8.92720039 15.66201413 9.9629009 17 11 C12.67787021 11 10.16497311 8.52725706 6.8125 6.0625 C6.15830078 5.59392578 5.50410156 5.12535156 4.83007812 4.64257812 C3.19724095 3.4592394 1.59561429 2.23307049 0 1 C0 0.67 0 0.34 0 0 Z " fill="#000000" transform="translate(825,504)"/>
<path d="M0 0 C0.66 0.33 1.32 0.66 2 1 C-3.61 5.29 -9.22 9.58 -15 14 C-15.66 13.67 -16.32 13.34 -17 13 C-5.47835991 3.40546697 -5.47835991 3.40546697 0 0 Z " fill="#000000" transform="translate(913,509)"/>
<path d="M0 0 C1.12894876 0.93274109 2.25300876 1.87140122 3.375 2.8125 C4.00148438 3.33457031 4.62796875 3.85664062 5.2734375 4.39453125 C7 6 7 6 9 9 C5.18063472 7.44396229 2.73955562 5.04395069 0 2 C0 1.34 0 0.68 0 0 Z " fill="#000000" transform="translate(631,518)"/>
<path d="M0 0 C0.66 0.33 1.32 0.66 2 1 C-0.8511929 3.59775353 -3.69109978 6.00492781 -7 8 C-10.95813083 7.6335064 -12.27270432 6.82426844 -14.875 3.875 C-15.24625 3.25625 -15.6175 2.6375 -16 2 C-15.1646875 2.4640625 -15.1646875 2.4640625 -14.3125 2.9375 C-11.639474 4.16564708 -9.9675781 4.93098656 -7 5 C-4.46340503 3.57316533 -2.23320441 1.85993105 0 0 Z " fill="#000000" transform="translate(881,533)"/>
</svg>
